<?xml version="1.0" encoding="UTF-8" standalone="no"?>
<!-- Created with Inkscape (http://www.inkscape.org/) -->
<svg height="271.67999" id="svg1" version="1.1" viewBox="0 0 384 271.67999" width="384" xmlns="http://www.w3.org/2000/svg" xmlns:svg="http://www.w3.org/2000/svg">
<metadata>{"current_lvl": 1, "total_lvl": 1}</metadata>
<defs id="defs1"></defs>
<g id="g1">
<rect class="wall" height="1.9728065" id="rect1" ry="0" style="fill:#000000" width="83.862732" x="10.727428" y="62.174179"></rect>
<rect class="wall" height="24.06558" id="rect2" ry="0" style="fill:#000000" width="2.3523982" x="92.314186" y="63.620865"></rect>
<rect class="wall" height="1.6904804" id="rect3" style="fill:#000000" width="19.300467" x="64.590683" y="86.36261"></rect>
<rect class="wall" height="1.646584" id="rect4" style="fill:#000000" width="45.213165" x="87.477066" y="86.535034"></rect>
<rect class="wall" height="7.549212" id="rect5" style="fill:#000000" width="1.0111934" x="106.01866" y="86.920311"></rect>
<rect class="wall" height="30.855925" id="rect6" style="fill:#000000" width="1.1413032" x="64.281204" y="63.610126"></rect>
<rect class="wall" height="57.186424" id="rect7" style="fill:#000000" width="1.1776203" x="64.15551" y="98.235764"></rect>
<rect class="wall" height="14.259974" id="rect8" style="fill:#000000" width="1.2281483" x="78.042839" y="128.80368"></rect>
<rect class="wall" height="26.044703" id="rect9" style="fill:#000000" width="1.3156251" x="93.097366" y="128.94295"></rect>
<rect class="wall" height="54.629074" id="rect10" style="fill:#000000" width="1.0585635" x="102.6535" y="100.26699"></rect>
<rect class="wall" height="18.736446" id="rect11" style="fill:#000000" width="1.0187726" x="56.023331" y="136.61658"></rect>
<rect class="wall" height="12.307379" id="rect12" style="fill:#000000" width="1.2906768" x="44.549351" y="123.96498"></rect>
<rect class="wall" height="1.3244675" id="rect13" style="fill:#000000" width="24.017895" x="33.089897" y="135.79076"></rect>
<rect class="wall" height="1.0879328" id="rect14" style="fill:#000000" width="20.131653" x="38.655251" y="154.47794"></rect>
<rect class="wall" height="1.0680374" id="rect15" style="fill:#000000" width="80.323868" x="62.867992" y="154.57616"></rect>
<rect class="wall" height="0.90034735" id="rect16" style="fill:#000000" width="14.856205" x="78.40538" y="142.21066"></rect>
<rect class="wall" height="1.0219306" id="rect17" style="fill:#000000" width="37.855644" x="64.834801" y="128.23302"></rect>
<rect class="wall" height="1.3326783" id="rect18" style="fill:#000000" width="78.089264" x="65.023331" y="99.946136"></rect>
<rect class="wall" height="1.2054107" id="rect19" style="fill:#000000" width="31.610687" x="103.16888" y="115.70206"></rect>
<rect class="wall" height="1.2032001" id="rect20" style="fill:#000000" width="4.2490964" x="138.65443" y="115.63321"></rect>
<rect class="wall" height="0.93192738" id="rect21" style="fill:#000000" width="29.663462" x="103.38552" y="128.68872"></rect>
<rect class="wall" height="0.96982348" id="rect22" style="fill:#000000" width="39.224953" x="103.64069" y="142.1393"></rect>
<rect class="wall" height="0.78255373" id="rect23" style="fill:#000000" width="10.496263" x="132.25127" y="134.62198"></rect>
<rect class="wall" height="14.368293" id="rect24" style="fill:#000000" width="1.1514088" x="128.82199" y="101.44872"></rect>
<rect class="wall" height="25.432997" id="rect25" style="fill:#000000" width="1.0389838" x="142.05719" y="100.90206"></rect>
<rect class="wall" height="14.520824" id="rect26" style="fill:#000000" width="1.0411944" x="142.09666" y="130.08235"></rect>
<rect class="wall" height="6.8070807" id="rect27" style="fill:#000000" width="0.99414009" x="142.01993" y="148.39499"></rect>
<rect class="wall" height="8.6096706" id="rect28" style="fill:#000000" width="1.160567" x="131.75104" y="133.73711"></rect>
<rect class="wall" height="7.5223689" id="rect29" style="fill:#000000" width="1.1008807" x="131.91399" y="116.78336"></rect>
<rect class="wall" height="1.5928979" id="rect30" style="fill:#000000" width="30.4697" x="27.913925" y="117.48222"></rect>
<rect class="wall" height="1.3108881" id="rect31" style="fill:#000000" width="2.53651" x="62.32766" y="117.8716"></rect>
<rect class="wall" height="1.7514298" id="rect32" style="fill:#000000" width="1.3292044" x="44.818413" y="118.58784"></rect>
<rect class="wall" height="1.6500578" id="rect33" style="fill:#000000" width="1.158988" x="105.95045" y="98.393974"></rect>
<rect class="wall" height="0.65560192" id="rect34" style="fill:#000000" width="14.235657" x="80.133125" y="115.66164"></rect>
<rect class="wall" height="0.62812728" id="rect35" style="fill:#000000" width="13.766377" x="80.189339" y="112.701"></rect>
<rect class="wall" height="11.96663" id="rect36" style="fill:#000000" width="0.68939257" x="88.642372" y="116.26987"></rect>
<rect class="wall" height="11.96663" id="rect36-3" style="fill:#000000" width="0.68939257" x="90.419838" y="116.32728"></rect>
<rect class="wall" height="11.96663" id="rect36-1" style="fill:#000000" width="0.68939257" x="91.997932" y="116.2638"></rect>
<rect class="wall" height="11.96663" id="rect36-36" style="fill:#000000" width="0.68939257" x="93.551529" y="116.09099"></rect>
<rect class="wall" height="11.96663" id="rect36-18" style="fill:#000000" width="0.68939257" x="80" y="101"></rect>
<rect class="wall" height="11.96663" id="rect36-2" style="fill:#000000" width="0.68939257" x="85" y="101"></rect>
<rect class="wall" height="11.96663" id="rect36-22" style="fill:#000000" width="0.68939257" x="81.514908" y="101"></rect>
<rect class="wall" height="11.96663" id="rect36-6" style="fill:#000000" width="0.68939257" x="83.080849" y="101"></rect>
<rect class="wall" height="23.5543" id="rect37" style="fill:#000000" width="1.6655321" x="131.19333" y="64.001083"></rect>
<rect class="wall" height="1.7410084" id="rect39" style="fill:#000000" width="76.168884" x="131.09669" y="63.868134"></rect>
<rect class="wall" height="1.3225721" id="rect40" style="fill:#000000" width="13.607849" x="132.20169" y="92.939468"></rect>
<rect class="wall" height="6.3100109" id="rect41" style="fill:#000000" width="0.81097579" x="132.21147" y="87.459068"></rect>
<rect class="wall" height="1.3472052" id="rect42" style="fill:#000000" width="42.290428" x="149.72136" y="92.94294"></rect>
<rect class="wall" height="1.3216252" id="rect43" style="fill:#000000" width="10.213621" x="195.75023" y="93.127686"></rect>
<rect class="wall" height="23.957893" id="rect44" style="fill:#000000" width="1.835117" x="205.42226" y="65.283554"></rect>
<rect class="wall" height="5.6730409" id="rect45" style="fill:#000000" width="1.2673076" x="204.92992" y="88.686897"></rect>
<rect class="wall" height="1.7729043" id="rect46" style="fill:#000000" width="132.04915" x="207.06726" y="87.319481"></rect>
<rect class="wall" height="28.171934" id="rect47" style="fill:#000000" width="1.2300432" x="337.60532" y="88.589951"></rect>
<rect class="wall" height="30.426119" id="rect48" style="fill:#000000" width="1.1349871" x="336.96866" y="123.09621"></rect>
<rect class="wall" height="1.151098" id="rect49" style="fill:#000000" width="182.81883" x="154.70689" y="147.91339"></rect>
<rect class="wall" height="26.639986" id="rect50" style="fill:#000000" width="0.91424257" x="154.69806" y="161.56956"></rect>
<rect class="wall" height="1.0803515" id="rect51" style="fill:#000000" width="16.315937" x="154.55942" y="161.17079"></rect>
<rect class="wall" height="0.48506963" id="rect52" style="fill:#000000" width="14.124053" x="156.8588" y="156.41273"></rect>
<rect class="wall" height="0.6740858" id="rect53" style="fill:#000000" width="14.362506" x="156.40196" y="153.42555"></rect>
<rect class="wall" height="4.6579385" id="rect54" style="fill:#000000" width="0.67726064" x="156.43689" y="148.90561"></rect>
<rect class="wall" height="4.6579385" id="rect54-1" style="fill:#000000" width="0.67726064" x="158.13217" y="148.896"></rect>
<rect class="wall" height="4.6579385" id="rect54-4" style="fill:#000000" width="0.67726064" x="160" y="149"></rect>
<rect class="wall" height="4.6579385" id="rect54-10" style="fill:#000000" width="0.67726064" x="161" y="149"></rect>
<rect class="wall" height="4.6579385" id="rect54-6" style="fill:#000000" width="0.67726064" x="165.36295" y="156.80974"></rect>
<rect class="wall" height="4.6579385" id="rect54-7" style="fill:#000000" width="0.67726064" x="166.91293" y="156.70978"></rect>
<rect class="wall" height="4.6579385" id="rect54-3" style="fill:#000000" width="0.67726064" x="168.4751" y="156.79057"></rect>
<rect class="wall" height="4.6579385" id="rect54-5" style="fill:#000000" width="0.67726064" x="170.32384" y="156.81087"></rect>
<path class="wall" d="m 170.30378,148.79732 4.37016,2.7205" id="path54" style="fill:#000000"></path>
<path class="wall" d="m 172.92914,148.95527 1.56247,1.32946 1.18444,1.28717 0.63792,1.37595 0.41148,1.66657 -0.0159,1.79106 -0.94837,2.26626 -1.12038,1.35804 -1.5873,1.11221 -2.15005,0.77546 -0.20376,-0.82274 1.95808,-0.64653 1.23604,-1.18943 1.185,-1.55771 0.59075,-1.48639 -0.23244,-2.63319 -0.71888,-1.81657 -1.22446,-1.17072 -1.94425,-1.3526 -0.40955,-0.32236 z" id="path56" style="fill:#000000"></path>
<path class="wall" d="m 336.71605,118.29438 6.81012,1.2164 v 1.08102 l -6.87474,-1.59661 z" id="path57" style="fill:#000000"></path>
<path class="wall" d="m 337.11332,122.61527 6.38532,1.55202 -0.21206,1.1379 -6.37986,-1.66465 z" id="path58" style="fill:#000000"></path>
<path class="wall" d="m 340.35547,123.59003 1.03915,0.4198 0.54814,-4.08289 -0.88147,-0.0578 z" id="path59" style="fill:#000000"></path>
<path class="wall" d="m 342.17021,123.79256 1.03915,0.4198 0.54814,-4.08289 -0.88147,-0.0578 z" id="path59-3" style="fill:#000000"></path>
<path class="wall" d="m 338.18251,115.40536 34.10684,6.14027 -3.98915,37.84273 -2.1402,-0.49284 4.31771,-36.17194 -32.65402,-6.13731 z" id="path60" style="fill:#000000"></path>
<path class="wall" d="m 368.51658,157.64908 -19.92616,-3.33452 -20.03515,-1.94361 -24.60929,-0.35177 -29.76887,1.66192 -19.46882,2.63827 -18.89634,3.4112 -26.10419,6.55393 -20.095,6.69567 -19.09224,7.73096 -15.81005,7.16167 -20.38692,10.90735 -15.33109,9.69277 -16.29857,11.17425 -33.323889,27.86009 -3.147493,-0.41093 -53.406592,-183.157137 -2.138375,-0.09352 53.886918,185.034987 5.563917,0.76475 19.348678,-17.06241 16.472856,-12.74356 14.67375,-10.17719 15.09832,-9.50596 20.79557,-10.88961 20.83699,-9.26682 23.13531,-8.59491 21.97921,-6.42287 22.86706,-5.22853 14.41731,-2.39571 17.18026,-1.66829 20.40877,-1.44189 25.46937,-0.038 16.42053,1.40071 18.34047,1.98683 10.57742,1.43257 z" id="path61" style="fill:#000000"></path>
<rect class="wall" height="20.605154" id="rect61" style="fill:#000000" width="10.747567" x="23.377716" y="65.544258"></rect>
<rect class="wall" height="20.507774" id="rect62" style="fill:#000000" width="10.746643" x="36.040222" y="65.689095"></rect>
<rect class="wall" height="20.216558" id="rect63" style="fill:#000000" width="10.579309" x="49.022602" y="65.685707"></rect>
<rect class="wall" height="3.6344995" id="rect64" style="fill:#000000" width="17.365723" x="66.215752" y="88.429222"></rect>
<rect class="wall" height="11.112743" id="rect65" style="fill:#000000" width="9.9263077" x="46.691643" y="124.01151"></rect>
<rect class="wall" height="40.819244" id="rect66" style="fill:#000000" width="22.461233" x="159.84341" y="101.25967"></rect>
<rect class="wall" height="40.893822" id="rect67" style="fill:#000000" width="22.563234" x="185.3866" y="101.3019"></rect>
<rect class="wall" height="29.869522" id="rect68" style="fill:#000000" width="15.185145" x="208.01701" y="106.63007"></rect>
<rect class="wall" height="40.810001" id="rect69" style="fill:#000000" width="28.770914" x="226.57225" y="101.23533"></rect>
<rect class="wall" height="41.102142" id="rect70" style="fill:#000000" width="22.206688" x="258.56104" y="101.30282"></rect>
<rect class="wall" height="30.113285" id="rect71" style="fill:#000000" width="16.37989" x="280.69992" y="106.56351"></rect>
<rect class="wall" height="40.952991" id="rect72" style="fill:#000000" width="9.9617462" x="301.13898" y="101.15459"></rect>
<rect class="wall" height="40.944981" id="rect73" style="fill:#000000" width="15.734617" x="313.73367" y="101.21962"></rect>
<rect class="wall" height="3.0261817" id="rect74" style="fill:#000000" width="28.246109" x="307.77438" y="90.305946"></rect>
<rect class="wall" height="21.87048" id="rect75" style="fill:#000000" width="2.9275689" x="332.88461" y="92.12381"></rect>
<text class="wall" id="text75" style="font-size:2.66667px;font-family:sans-serif;-inkscape-font-specification:sans-serif;text-align:center;text-anchor:middle;fill:#000000" x="79.543274" xml:space="preserve" y="74.962708"><tspan id="tspan75" style="font-size:2.66667px" x="79.543274" y="74.962708">PARLATORIUM</tspan><tspan id="tspan76" style="font-size:2.66667px" x="79.543274" y="78.296043">4</tspan></text>
<text class="wall" id="text77" style="font-size:2.66667px;font-family:sans-serif;-inkscape-font-specification:sans-serif;text-align:center;text-anchor:middle;fill:#000000" x="40.541588" xml:space="preserve" y="122.68609"><tspan id="tspan77" x="40.541588" y="122.68609">INKLUSIONS.</tspan></text>
<text class="wall" id="text78" style="font-size:2.66667px;font-family:sans-serif;-inkscape-font-specification:sans-serif;text-align:center;text-anchor:middle;fill:#000000" x="37.721569" xml:space="preserve" y="126.52429"><tspan id="tspan78" x="37.721569" y="126.52429">RAUM</tspan></text>
<text class="wall" id="text79" style="font-size:2.66667px;font-family:sans-serif;-inkscape-font-specification:sans-serif;text-align:center;text-anchor:middle;fill:#000000" x="86.452644" xml:space="preserve" y="136.61021"><tspan id="tspan79" x="86.452644" y="136.61021">AUFZUG</tspan></text>
<text class="wall" id="text80" style="font-size:2.66667px;font-family:sans-serif;-inkscape-font-specification:sans-serif;text-align:center;text-anchor:middle;fill:#000000" x="125.9625" xml:space="preserve" y="124.36066"><tspan id="tspan80" x="125.9625" y="124.36066">WC</tspan></text>
<text class="wall" id="text81" style="font-size:2.66667px;font-family:sans-serif;-inkscape-font-specification:sans-serif;text-align:center;text-anchor:middle;fill:#000000" x="125.94771" xml:space="preserve" y="136.13596"><tspan id="tspan81" x="125.94771" y="136.13596">WC</tspan></text>
<text class="wall" id="text82" style="font-size:2.66667px;font-family:sans-serif;-inkscape-font-specification:sans-serif;text-align:center;text-anchor:middle;fill:#000000" x="135.81885" xml:space="preserve" y="112.88983"><tspan id="tspan82" x="135.81885" y="112.88983">WC</tspan></text>
<text class="wall" id="text83" style="font-size:2.66667px;font-family:sans-serif;-inkscape-font-specification:sans-serif;text-align:center;text-anchor:middle;fill:#000000" x="123.39949" xml:space="preserve" y="148.22868"><tspan id="tspan83" x="123.39949" y="148.22868">KOPIERER</tspan><tspan id="tspan84" x="123.39949" y="151.56203">SCANNER</tspan></text>
<rect class="wall" height="20.682503" id="rect84" style="fill:#000000" width="8.3577471" x="146.28999" y="66.652115"></rect>
<rect class="wall" height="20.596525" id="rect85" style="fill:#000000" width="8.6754646" x="158.84988" y="66.705116"></rect>
<rect class="wall" height="20.504076" id="rect86" style="fill:#000000" width="8.7885618" x="171.32811" y="66.760277"></rect>
<rect class="wall" height="20.678806" id="rect87" style="fill:#000000" width="8.4212284" x="184.40324" y="66.667213"></rect>
<text class="wall" id="text87" style="font-size:8px;font-family:sans-serif;-inkscape-font-specification:sans-serif;text-align:center;text-anchor:middle;fill:#000000" x="167.98793" xml:space="preserve" y="60.954884"><tspan id="tspan87" x="167.98793" y="60.954884">BIBLIOTHEK Recht 1 - 3.OG</tspan></text>
<rect class="rect_chair" height="3.4978838" id="S1" style="fill:#0000ff" width="3.9009981" x="108.14452" y="90.501701"></rect>
<rect class="rect_chair" height="3.4978838" id="S2" style="fill:#0000ff" width="3.9009981" x="117.12048" y="90.45005"></rect>
<rect class="rect_chair" height="3.4978838" id="S3" style="fill:#0000ff" width="3.9009981" x="126.29932" y="90.480934"></rect>
<rect class="rect_chair" height="3.4978838" id="S4" style="fill:#0000ff" width="3.9009981" x="150.37593" y="104.6609"></rect>
<rect class="rect_chair" height="3.4978838" id="S5" style="fill:#0000ff" width="3.9009981" x="208" y="90.446915"></rect>
<rect class="rect_chair" height="3.4978838" id="S6" style="fill:#0000ff" width="3.9009981" x="217.10345" y="90.484695"></rect>
<rect class="rect_chair" height="3.4978838" id="S7" style="fill:#0000ff" width="3.9009981" x="226.01788" y="90.561646"></rect>
<rect class="rect_chair" height="3.4978838" id="S8" style="fill:#0000ff" width="3.9009981" x="235.10089" y="90.444466"></rect>
<rect class="rect_chair" height="3.4978838" id="S9" style="fill:#0000ff" width="3.9009981" x="244.09743" y="90.478264"></rect>
<rect class="rect_chair" height="3.4978838" id="S10" style="fill:#0000ff" width="3.9009981" x="253.24522" y="90.408707"></rect>
<rect class="rect_chair" height="3.4978838" id="S11" style="fill:#0000ff" width="3.9009981" x="262" y="90.427811"></rect>
<rect class="rect_chair" height="3.4978838" id="S12" style="fill:#0000ff" width="3.9009981" x="270.98071" y="90.490448"></rect>
<rect class="rect_chair" height="3.4978838" id="S13" style="fill:#0000ff" width="3.9009981" x="280.08173" y="90.471344"></rect>
<rect class="rect_chair" height="3.4978838" id="S14" style="fill:#0000ff" width="3.9009981" x="289.08173" y="90.509552"></rect>
<rect class="rect_chair" height="3.4978838" id="S15" style="fill:#0000ff" width="3.9009981" x="298.22589" y="90.427811"></rect>
<rect class="rect_chair" height="3.4978838" id="S16" style="fill:#0000ff" width="3.9009981" x="150.4472" y="120.19537"></rect>
<rect class="rect_chair" height="3.4978838" id="S17" style="fill:#0000ff" width="3.9009981" x="150.38228" y="135.4481"></rect>
</g>
<rect class="rect_chair" height="3.5058751" id="S18" style="fill:#0000ff;stroke-width:0.959869" width="3.5859895" x="52.488197" y="100.33723"></rect>
<rect class="rect_chair" height="3.5058751" id="S19" style="fill:#0000ff;stroke-width:0.959869" width="3.5859895" x="48.870354" y="100.34439"></rect>
<rect class="rect_chair" height="3.5058751" id="S20" style="fill:#0000ff;stroke-width:0.959869" width="3.5859895" x="45.24844" y="100.36424"></rect>
<rect class="rect_chair" height="3.5058751" id="S21" style="fill:#0000ff;stroke-width:0.959869" width="3.5859895" x="41.632534" y="100.37202"></rect>
<rect class="rect_chair" height="3.5058751" id="S22" style="fill:#0000ff;stroke-width:0.959869" width="3.5859895" x="38.014965" y="100.37643"></rect>
<rect class="rect_chair" height="3.5058751" id="S23" style="fill:#0000ff;stroke-width:0.959869" width="3.5859895" x="34.381863" y="100.38164"></rect>
<rect class="rect_chair" height="3.5058751" id="S24" style="fill:#0000ff;stroke-width:0.959869" width="3.5859895" x="30.765285" y="100.38333"></rect>
<rect class="rect_chair" height="3.5058751" id="S25" style="fill:#0000ff;stroke-width:0.959869" width="3.5859895" x="52.495445" y="104.01051"></rect>
<rect class="rect_chair" height="3.5058751" id="S26" style="fill:#0000ff;stroke-width:0.959869" width="3.5859895" x="48.877602" y="104.01767"></rect>
<rect class="rect_chair" height="3.5058751" id="S27" style="fill:#0000ff;stroke-width:0.959869" width="3.5859895" x="45.255688" y="104.03752"></rect>
<rect class="rect_chair" height="3.5058751" id="S28" style="fill:#0000ff;stroke-width:0.959869" width="3.5859895" x="41.639782" y="104.0453"></rect>
<rect class="rect_chair" height="3.5058751" id="S29" style="fill:#0000ff;stroke-width:0.959869" width="3.5859895" x="38.022213" y="104.04971"></rect>
<rect class="rect_chair" height="3.5058751" id="S30" style="fill:#0000ff;stroke-width:0.959869" width="3.5859895" x="34.389111" y="104.05492"></rect>
<rect class="rect_chair" height="3.5058751" id="S31" style="fill:#0000ff;stroke-width:0.959869" width="3.5859895" x="30.772535" y="104.05661"></rect>
<rect class="rect_chair" height="3.5058751" id="S32" style="fill:#0000ff;stroke-width:0.959869" width="3.5859895" x="52.504654" y="111.84478"></rect>
<rect class="rect_chair" height="3.5058751" id="S33" style="fill:#0000ff;stroke-width:0.959869" width="3.5859895" x="48.88681" y="111.85194"></rect>
<rect class="rect_chair" height="3.5058751" id="S34" style="fill:#0000ff;stroke-width:0.959869" width="3.5859895" x="45.264896" y="111.87179"></rect>
<rect class="rect_chair" height="3.5058751" id="S35" style="fill:#0000ff;stroke-width:0.959869" width="3.5859895" x="218.02069" y="138.7249"></rect>
<rect class="rect_chair" height="3.5058751" id="S36" style="fill:#0000ff;stroke-width:0.959869" width="3.5859895" x="214.40285" y="138.73206"></rect>
<rect class="rect_chair" height="3.5058751" id="S37" style="fill:#0000ff;stroke-width:0.959869" width="3.5859895" x="210.78093" y="138.75191"></rect>
<rect class="rect_chair" height="3.5058751" id="S38" style="fill:#0000ff;stroke-width:0.959869" width="3.5859895" x="218.20592" y="101.3681"></rect>
<rect class="rect_chair" height="3.5058751" id="S39" style="fill:#0000ff;stroke-width:0.959869" width="3.5859895" x="214.58807" y="101.37526"></rect>
<rect class="rect_chair" height="3.5058751" id="S40" style="fill:#0000ff;stroke-width:0.959869" width="3.5859895" x="210.96616" y="101.39511"></rect>
<rect class="rect_chair" height="3.5058751" id="S41" style="fill:#0000ff;stroke-width:0.959869" width="3.5859895" x="292.03421" y="138.57727"></rect>
<rect class="rect_chair" height="3.5058751" id="S42" style="fill:#0000ff;stroke-width:0.959869" width="3.5859895" x="288.41638" y="138.58443"></rect>
<rect class="rect_chair" height="3.5058751" id="S43" style="fill:#0000ff;stroke-width:0.959869" width="3.5859895" x="284.79446" y="138.60428"></rect>
<rect class="rect_chair" height="3.5058751" id="S44" style="fill:#0000ff;stroke-width:0.959869" width="3.5859895" x="292.03275" y="101.48798"></rect>
<rect class="rect_chair" height="3.5058751" id="S45" style="fill:#0000ff;stroke-width:0.959869" width="3.5859895" x="288.41492" y="101.49513"></rect>
<rect class="rect_chair" height="3.5058751" id="S46" style="fill:#0000ff;stroke-width:0.959869" width="3.5859895" x="284.793" y="101.51498"></rect>
<rect class="rect_chair" height="3.5058751" id="S47" style="fill:#0000ff;stroke-width:0.959869" width="3.5859895" x="41.648991" y="111.87957"></rect>
<rect class="rect_chair" height="3.5058751" id="S48" style="fill:#0000ff;stroke-width:0.959869" width="3.5859895" x="38.031422" y="111.88397"></rect>
<rect class="rect_chair" height="3.5058751" id="S49" style="fill:#0000ff;stroke-width:0.959869" width="3.5859895" x="34.398319" y="111.88918"></rect>
<rect class="rect_chair" height="3.5058751" id="S50" style="fill:#0000ff;stroke-width:0.959869" width="3.5859895" x="30.781744" y="111.89088"></rect>
<rect class="rect_chair" height="3.5058751" id="S51" style="fill:#0000ff;stroke-width:0.959869" width="3.5859895" x="52.530285" y="93.425636"></rect>
<rect class="rect_chair" height="3.5058751" id="S52" style="fill:#0000ff;stroke-width:0.959869" width="3.5859895" x="48.912441" y="93.432793"></rect>
<rect class="rect_chair" height="3.5058751" id="S53" style="fill:#0000ff;stroke-width:0.959869" width="3.5859895" x="45.290527" y="93.452644"></rect>
<rect class="rect_chair" height="3.5058751" id="S54" style="fill:#0000ff;stroke-width:0.959869" width="3.5859895" x="41.674622" y="93.460426"></rect>
<rect class="rect_chair" height="3.5058751" id="S55" style="fill:#0000ff;stroke-width:0.959869" width="3.5859895" x="38.057053" y="93.464828"></rect>
<rect class="rect_chair" height="3.5058751" id="S56" style="fill:#0000ff;stroke-width:0.959869" width="3.5859895" x="34.42395" y="93.470032"></rect>
<rect class="rect_chair" height="3.5058751" id="S57" style="fill:#0000ff;stroke-width:0.959869" width="3.5859895" x="30.807375" y="93.471741"></rect>
<rect class="rect_chair" height="3.5058751" id="S58" style="fill:#0000ff;stroke-width:0.959869" width="3.5859895" x="27.185209" y="93.480202"></rect>
<rect class="rect_chair" height="3.5058751" id="S59" style="fill:#0000ff;stroke-width:0.959869" width="3.5859895" x="23.568783" y="93.494385"></rect>
<rect class="rect_chair" height="3.4970672" id="S60" style="fill:#0000ff;stroke-width:0.994068" width="3.6001546" x="116.45478" y="162.90364"></rect>
<rect class="rect_chair" height="3.4970672" id="S61" style="fill:#0000ff;stroke-width:0.994068" width="3.6001546" x="116.43468" y="166.5274"></rect>
<rect class="rect_chair" height="3.4970672" id="S62" style="fill:#0000ff;stroke-width:0.994068" width="3.6001546" x="116.41532" y="170.164"></rect>
<rect class="rect_chair" height="3.4970672" id="S63" style="fill:#0000ff;stroke-width:0.994068" width="3.6001546" x="116.41862" y="173.77579"></rect>
<rect class="rect_chair" height="3.4970672" id="S64" style="fill:#0000ff;stroke-width:0.994068" width="3.6001546" x="116.40494" y="177.39542"></rect>
<rect class="rect_chair" height="3.4970672" id="S65" style="fill:#0000ff;stroke-width:0.994068" width="3.6001546" x="116.45142" y="181.08098"></rect>
<rect class="rect_chair" height="3.4970672" id="S66" style="fill:#0000ff;stroke-width:0.994068" width="3.6001546" x="116.48521" y="184.71767"></rect>
<rect class="rect_chair" height="3.4970672" id="S67" style="fill:#0000ff;stroke-width:0.994068" width="3.6001546" x="116.46513" y="188.34143"></rect>
<rect class="rect_chair" height="3.4970672" id="S68" style="fill:#0000ff;stroke-width:0.994068" width="3.6001546" x="116.44576" y="191.97803"></rect>
<rect class="rect_chair" height="3.4970672" id="S69" style="fill:#0000ff;stroke-width:0.994068" width="3.6001546" x="116.44908" y="195.58981"></rect>
<rect class="rect_chair" height="3.4970672" id="S70" style="fill:#0000ff;stroke-width:0.994068" width="3.6001546" x="116.43539" y="199.20944"></rect>
<rect class="rect_chair" height="3.4970672" id="S71" style="fill:#0000ff;stroke-width:0.994068" width="3.6001546" x="127.5857" y="162.82138"></rect>
<rect class="rect_chair" height="3.4970672" id="S72" style="fill:#0000ff;stroke-width:0.994068" width="3.6001546" x="127.5656" y="166.44514"></rect>
<rect class="rect_chair" height="3.4970672" id="S73" style="fill:#0000ff;stroke-width:0.994068" width="3.6001546" x="127.54624" y="170.08174"></rect>
<rect class="rect_chair" height="3.4970672" id="S74" style="fill:#0000ff;stroke-width:0.994068" width="3.6001546" x="127.54955" y="173.69353"></rect>
<rect class="rect_chair" height="3.4970672" id="S75" style="fill:#0000ff;stroke-width:0.994068" width="3.6001546" x="127.53586" y="177.31316"></rect>
<rect class="rect_chair" height="3.4970672" id="S76" style="fill:#0000ff;stroke-width:0.994068" width="3.6001546" x="127.58234" y="180.99872"></rect>
<rect class="rect_chair" height="3.4970672" id="S77" style="fill:#0000ff;stroke-width:0.994068" width="3.6001546" x="127.61614" y="184.63541"></rect>
<rect class="rect_chair" height="3.4970672" id="S78" style="fill:#0000ff;stroke-width:0.994068" width="3.6001546" x="127.59605" y="188.25917"></rect>
<rect class="rect_chair" height="3.4970672" id="S79" style="fill:#0000ff;stroke-width:0.994068" width="3.6001546" x="127.57668" y="191.89577"></rect>
<rect class="rect_chair" height="3.4970672" id="S80" style="fill:#0000ff;stroke-width:0.994068" width="3.6001546" x="138.87122" y="163"></rect>
<rect class="rect_chair" height="3.4970672" id="S81" style="fill:#0000ff;stroke-width:0.994068" width="3.6001546" x="138.85112" y="166.62376"></rect>
<rect class="rect_chair" height="3.4970672" id="S82" style="fill:#0000ff;stroke-width:0.994068" width="3.6001546" x="138.83176" y="170.26036"></rect>
<rect class="rect_chair" height="3.4970672" id="S83" style="fill:#0000ff;stroke-width:0.994068" width="3.6001546" x="138.83507" y="173.87215"></rect>
<rect class="rect_chair" height="3.4970672" id="S84" style="fill:#0000ff;stroke-width:0.994068" width="3.6001546" x="138.82138" y="177.49178"></rect>
<rect class="rect_chair" height="3.4970672" id="S85" style="fill:#0000ff;stroke-width:0.994068" width="3.6001546" x="138.86786" y="181.17734"></rect>
<rect class="rect_chair" height="3.4970672" id="S86" style="fill:#0000ff;stroke-width:0.994068" width="3.6001546" x="138.90167" y="184.81403"></rect>
<rect class="rect_chair" height="3.4970672" id="S87" style="fill:#0000ff;stroke-width:0.994068" width="3.6001546" x="94.313568" y="202.73691"></rect>
<rect class="rect_chair" height="3.4970672" id="S88" style="fill:#0000ff;stroke-width:0.994068" width="3.6001546" x="94.293472" y="206.36067"></rect>
<rect class="rect_chair" height="3.4970672" id="S89" style="fill:#0000ff;stroke-width:0.994068" width="3.6001546" x="94.274109" y="209.99727"></rect>
<rect class="rect_chair" height="3.4970672" id="S90" style="fill:#0000ff;stroke-width:0.994068" width="3.6001546" x="94.27742" y="213.60905"></rect>
<rect class="rect_chair" height="3.4970672" id="S91" style="fill:#0000ff;stroke-width:0.994068" width="3.6001546" x="83.052986" y="202.76717"></rect>
<rect class="rect_chair" height="3.4970672" id="S92" style="fill:#0000ff;stroke-width:0.994068" width="3.6001546" x="83.03289" y="206.39093"></rect>
<rect class="rect_chair" height="3.4970672" id="S93" style="fill:#0000ff;stroke-width:0.994068" width="3.6001546" x="83.013527" y="210.02753"></rect>
<rect class="rect_chair" height="3.4970672" id="S94" style="fill:#0000ff;stroke-width:0.994068" width="3.6001546" x="83.016838" y="213.63931"></rect>
<rect class="rect_chair" height="3.4970672" id="S95" style="fill:#0000ff;stroke-width:0.994068" width="3.6001546" x="83.003151" y="217.25894"></rect>
<rect class="rect_chair" height="3.4970672" id="S96" style="fill:#0000ff;stroke-width:0.994068" width="3.6001546" x="83.049629" y="220.9445"></rect>
<rect class="rect_chair" height="3.4970672" id="S97" style="fill:#0000ff;stroke-width:0.994068" width="3.6001546" x="134.56236" y="68.998009"></rect>
<rect class="rect_chair" height="3.4970672" id="S98" style="fill:#0000ff;stroke-width:0.994068" width="3.6001546" x="134.54227" y="72.62178"></rect>
<rect class="rect_chair" height="3.4970672" id="S99" style="fill:#0000ff;stroke-width:0.994068" width="3.6001546" x="134.5229" y="76.258377"></rect>
<rect class="rect_chair" height="3.4970672" id="S100" style="fill:#0000ff;stroke-width:0.994068" width="3.6001546" x="134.52621" y="79.870155"></rect>
<rect class="rect_chair" height="3.4970672" id="S101" style="fill:#0000ff;stroke-width:0.994068" width="3.6001546" x="134.51253" y="83.489792"></rect>
<rect class="rect_chair" height="3.4970672" id="S102" style="fill:#0000ff;stroke-width:0.994068" width="3.6001546" x="134.55901" y="87.175354"></rect>
<rect class="rect_chair" height="3.4970672" id="S103" style="fill:#0000ff;stroke-width:0.994068" width="3.6001546" x="200.244" y="69.116501"></rect>
<rect class="rect_chair" height="3.4970672" id="S104" style="fill:#0000ff;stroke-width:0.994068" width="3.6001546" x="200.22391" y="72.740273"></rect>
<rect class="rect_chair" height="3.4970672" id="S105" style="fill:#0000ff;stroke-width:0.994068" width="3.6001546" x="200.20454" y="76.376869"></rect>
<rect class="rect_chair" height="3.4970672" id="S106" style="fill:#0000ff;stroke-width:0.994068" width="3.6001546" x="200.20786" y="79.988647"></rect>
<rect class="rect_chair" height="3.4970672" id="S107" style="fill:#0000ff;stroke-width:0.994068" width="3.6001546" x="200.19417" y="83.608284"></rect>
<rect class="rect_chair" height="3.4970672" id="S108" style="fill:#0000ff;stroke-width:0.994068" width="3.6001546" x="200.24065" y="87.293846"></rect>
<rect class="rect_chair" height="3.4970672" id="S109" style="fill:#0000ff;stroke-width:0.994068" width="3.6001546" x="339.04984" y="126.84337"></rect>
<rect class="rect_chair" height="3.4970672" id="S110" style="fill:#0000ff;stroke-width:0.994068" width="3.6001546" x="349.69708" y="129.50351"></rect>
<rect class="rect_chair" height="3.4970672" id="S111" style="fill:#0000ff;stroke-width:0.994068" width="3.6001546" x="349.44861" y="133.0656"></rect>
<rect class="rect_chair" height="3.4970672" id="S112" style="fill:#0000ff;stroke-width:0.994068" width="3.6001546" x="349.01562" y="136.63142"></rect>
<rect class="rect_chair" height="3.4970672" id="S113" style="fill:#0000ff;stroke-width:0.994068" width="3.6001546" x="348.51486" y="140.23384"></rect>
<rect class="rect_chair" height="3.4970672" id="S114" style="fill:#0000ff;stroke-width:0.994068" width="3.6001546" x="357.22214" y="131.01776"></rect>
<rect class="rect_chair" height="3.4970672" id="S115" style="fill:#0000ff;stroke-width:0.994068" width="3.6001546" x="356.97366" y="134.57985"></rect>
<rect class="rect_chair" height="3.4970672" id="S116" style="fill:#0000ff;stroke-width:0.994068" width="3.6001546" x="356.54068" y="138.14568"></rect>
<rect class="rect_chair" height="3.4970672" id="S117" style="fill:#0000ff;stroke-width:0.994068" width="3.6001546" x="356.03992" y="141.74809"></rect>
<rect class="rect_chair" height="3.4970672" id="S118" style="fill:#0000ff;stroke-width:0.994068" width="3.6001546" x="364.56927" y="132.47289"></rect>
<rect class="rect_chair" height="3.4970672" id="S119" style="fill:#0000ff;stroke-width:0.994068" width="3.6001546" x="364.3208" y="136.03497"></rect>
<rect class="rect_chair" height="3.4970672" id="S120" style="fill:#0000ff;stroke-width:0.994068" width="3.6001546" x="363.88782" y="139.6008"></rect>
<rect class="rect_chair" height="3.4970672" id="S121" style="fill:#0000ff;stroke-width:0.994068" width="3.6001546" x="363.38705" y="143.20322"></rect>
<rect class="rect_chair" height="3.4970672" id="S122" style="fill:#0000ff;stroke-width:0.994068" width="3.6001546" x="347.40976" y="119.80054"></rect>
<rect class="rect_chair" height="3.4970672" id="S123" style="fill:#0000ff;stroke-width:0.994068" width="3.6001546" x="351.10455" y="120.4774"></rect>
<rect class="rect_chair" height="3.4970672" id="S124" style="fill:#0000ff;stroke-width:0.994068" width="3.6001546" x="354.80136" y="121.06394"></rect>
<rect class="rect_chair" height="3.4970672" id="S125" style="fill:#0000ff;stroke-width:0.994068" width="3.6001546" x="358.49615" y="121.74079"></rect>
<rect class="rect_chair" height="3.4970672" id="S126" style="fill:#0000ff;stroke-width:0.994068" width="3.6001546" x="362.19562" y="122.4774"></rect>
<rect class="rect_chair" height="3.4970672" id="S127" style="fill:#0000ff;stroke-width:0.994068" width="3.6001546" x="365.89041" y="123.15426"></rect>
<rect class="rect_chair" height="3.4970672" id="S128" style="fill:#0000ff;stroke-width:0.994068" width="3.6001546" x="343.8887" y="149.52261"></rect>
<rect class="rect_chair" height="3.4970672" id="S129" style="fill:#0000ff;stroke-width:0.994068" width="3.6001546" x="347.5835" y="150.14722"></rect>
<rect class="rect_chair" height="3.4970672" id="S130" style="fill:#0000ff;stroke-width:0.994068" width="3.6001546" x="351.2803" y="150.5247"></rect>
<rect class="rect_chair" height="3.4970672" id="S131" style="fill:#0000ff;stroke-width:0.994068" width="3.6001546" x="354.9751" y="151.04477"></rect>
<rect class="rect_chair" height="3.4970672" id="S132" style="fill:#0000ff;stroke-width:0.994068" width="3.6001546" x="358.67456" y="151.72913"></rect>
<rect class="rect_chair" height="3.4970672" id="S133" style="fill:#0000ff;stroke-width:0.994068" width="3.6001546" x="362.36935" y="152.35371"></rect>
<rect class="rect_chair" height="3.4970672" id="S134" style="fill:#0000ff;stroke-width:0.994068" width="3.6001546" x="339.02972" y="130.46696"></rect>
<rect class="rect_chair" height="3.4970672" id="S135" style="fill:#0000ff;stroke-width:0.994068" width="3.6001546" x="339.01038" y="134.10356"></rect>
<rect class="rect_chair" height="3.4970672" id="S136" style="fill:#0000ff;stroke-width:0.994068" width="3.6001546" x="339.01367" y="137.71535"></rect>
<rect class="rect_chair" height="3.4970672" id="S137" style="fill:#0000ff;stroke-width:0.994068" width="3.6001546" x="339" y="141.33498"></rect>
<rect class="rect_chair" height="3.4970672" id="S138" style="fill:#0000ff;stroke-width:0.994068" width="3.6001546" x="339.04648" y="145.02054"></rect>
<rect class="rect_chair" height="3.4970672" id="S139" style="fill:#0000ff;stroke-width:0.994068" width="3.6001546" x="49.836891" y="162.92902"></rect>
<rect class="rect_chair" height="3.4970672" id="S140" style="fill:#0000ff;stroke-width:0.994068" width="3.6001546" x="49.816795" y="166.55278"></rect>
<rect class="rect_chair" height="3.4970672" id="S141" style="fill:#0000ff;stroke-width:0.994068" width="3.6001546" x="49.797432" y="170.18938"></rect>
<rect class="rect_chair" height="3.4970672" id="S142" style="fill:#0000ff;stroke-width:0.994068" width="3.6001546" x="49.800743" y="173.80116"></rect>
<rect class="rect_chair" height="3.4970672" id="S143" style="fill:#0000ff;stroke-width:0.994068" width="3.6001546" x="49.787056" y="177.42079"></rect>
<rect class="rect_chair" height="3.4970672" id="S144" style="fill:#0000ff;stroke-width:0.994068" width="3.6001546" x="49.833534" y="181.10635"></rect>
<rect class="rect_chair" height="3.4970672" id="S145" style="fill:#0000ff;stroke-width:0.994068" width="3.6001546" x="60.877186" y="162.80392"></rect>
<rect class="rect_chair" height="3.4970672" id="S146" style="fill:#0000ff;stroke-width:0.994068" width="3.6001546" x="60.85709" y="166.42769"></rect>
<rect class="rect_chair" height="3.4970672" id="S147" style="fill:#0000ff;stroke-width:0.994068" width="3.6001546" x="60.837727" y="170.06429"></rect>
<rect class="rect_chair" height="3.4970672" id="S148" style="fill:#0000ff;stroke-width:0.994068" width="3.6001546" x="60.841038" y="173.67607"></rect>
<rect class="rect_chair" height="3.4970672" id="S149" style="fill:#0000ff;stroke-width:0.994068" width="3.6001546" x="60.827347" y="177.2957"></rect>
<rect class="rect_chair" height="3.4970672" id="S150" style="fill:#0000ff;stroke-width:0.994068" width="3.6001546" x="60.873829" y="180.98126"></rect>
<rect class="rect_chair" height="3.4970672" id="S151" style="fill:#0000ff;stroke-width:0.994068" width="3.6001546" x="60.907635" y="184.61795"></rect>
<rect class="rect_chair" height="3.4970672" id="S152" style="fill:#0000ff;stroke-width:0.994068" width="3.6001546" x="60.887539" y="188.24171"></rect>
<rect class="rect_chair" height="3.4970672" id="S153" style="fill:#0000ff;stroke-width:0.994068" width="3.6001546" x="60.868176" y="191.87831"></rect>
<rect class="rect_chair" height="3.4970672" id="S154" style="fill:#0000ff;stroke-width:0.994068" width="3.6001546" x="60.871487" y="195.4901"></rect>
<rect class="rect_chair" height="3.4970672" id="S155" style="fill:#0000ff;stroke-width:0.994068" width="3.6001546" x="60.8578" y="199.10973"></rect>
<rect class="rect_chair" height="3.4970672" id="S156" style="fill:#0000ff;stroke-width:0.994068" width="3.6001546" x="71.929459" y="162.86586"></rect>
<rect class="rect_chair" height="3.4970672" id="S157" style="fill:#0000ff;stroke-width:0.994068" width="3.6001546" x="71.909363" y="166.48962"></rect>
<rect class="rect_chair" height="3.4970672" id="S158" style="fill:#0000ff;stroke-width:0.994068" width="3.6001546" x="71.889999" y="170.12622"></rect>
<rect class="rect_chair" height="3.4970672" id="S159" style="fill:#0000ff;stroke-width:0.994068" width="3.6001546" x="71.893311" y="173.73801"></rect>
<rect class="rect_chair" height="3.4970672" id="S160" style="fill:#0000ff;stroke-width:0.994068" width="3.6001546" x="71.879623" y="177.35764"></rect>
<rect class="rect_chair" height="3.4970672" id="S161" style="fill:#0000ff;stroke-width:0.994068" width="3.6001546" x="71.926102" y="181.0432"></rect>
<rect class="rect_chair" height="3.4970672" id="S162" style="fill:#0000ff;stroke-width:0.994068" width="3.6001546" x="71.959908" y="184.67989"></rect>
<rect class="rect_chair" height="3.4970672" id="S163" style="fill:#0000ff;stroke-width:0.994068" width="3.6001546" x="71.939812" y="188.30365"></rect>
<rect class="rect_chair" height="3.4970672" id="S164" style="fill:#0000ff;stroke-width:0.994068" width="3.6001546" x="71.920448" y="191.94025"></rect>
<rect class="rect_chair" height="3.4970672" id="S165" style="fill:#0000ff;stroke-width:0.994068" width="3.6001546" x="71.923759" y="195.55203"></rect>
<rect class="rect_chair" height="3.4970672" id="S166" style="fill:#0000ff;stroke-width:0.994068" width="3.6001546" x="71.910072" y="199.17166"></rect>
<rect class="rect_chair" height="3.4970672" id="S167" style="fill:#0000ff;stroke-width:0.994068" width="3.6001546" x="71.89856" y="202.76518"></rect>
<rect class="rect_chair" height="3.4970672" id="S168" style="fill:#0000ff;stroke-width:0.994068" width="3.6001546" x="71.878464" y="206.38895"></rect>
<rect class="rect_chair" height="3.4970672" id="S169" style="fill:#0000ff;stroke-width:0.994068" width="3.6001546" x="71.8591" y="210.02554"></rect>
<rect class="rect_chair" height="3.4970672" id="S170" style="fill:#0000ff;stroke-width:0.994068" width="3.6001546" x="71.862411" y="213.63733"></rect>
<rect class="rect_chair" height="3.4970672" id="S171" style="fill:#0000ff;stroke-width:0.994068" width="3.6001546" x="71.848724" y="217.25696"></rect>
<rect class="rect_chair" height="3.4970672" id="S172" style="fill:#0000ff;stroke-width:0.994068" width="3.6001546" x="71.895203" y="220.94252"></rect>
<rect class="rect_chair" height="3.4970672" id="S173" style="fill:#0000ff;stroke-width:0.994068" width="3.6001546" x="71.929008" y="224.57921"></rect>
<rect class="rect_chair" height="3.4970672" id="S174" style="fill:#0000ff;stroke-width:0.994068" width="3.6001546" x="71.908913" y="228.20297"></rect>
<rect class="rect_chair" height="3.4970672" id="S175" style="fill:#0000ff;stroke-width:0.994068" width="3.6001546" x="71.889549" y="231.83957"></rect>
<rect class="rect_chair" height="3.4970672" id="S176" style="fill:#0000ff;stroke-width:0.994068" width="3.6001546" x="60.904278" y="202.68863"></rect>
<rect class="rect_chair" height="3.4970672" id="S177" style="fill:#0000ff;stroke-width:0.994068" width="3.6001546" x="60.907635" y="206.32449"></rect>
<rect class="rect_chair" height="3.4970672" id="S178" style="fill:#0000ff;stroke-width:0.994068" width="3.6001546" x="60.887539" y="209.9127"></rect>
<rect class="rect_chair" height="3.4970672" id="S179" style="fill:#0000ff;stroke-width:0.994068" width="3.6001546" x="60.868176" y="213.4782"></rect>
<rect class="rect_chair" height="3.4970672" id="S180" style="fill:#0000ff;stroke-width:0.994068" width="3.6001546" x="83.098412" y="162.86444"></rect>
<rect class="rect_chair" height="3.4970672" id="S181" style="fill:#0000ff;stroke-width:0.994068" width="3.6001546" x="83.078316" y="166.4882"></rect>
<rect class="rect_chair" height="3.4970672" id="S182" style="fill:#0000ff;stroke-width:0.994068" width="3.6001546" x="83.058952" y="170.1248"></rect>
<rect class="rect_chair" height="3.4970672" id="S183" style="fill:#0000ff;stroke-width:0.994068" width="3.6001546" x="83.062263" y="173.73659"></rect>
<rect class="rect_chair" height="3.4970672" id="S184" style="fill:#0000ff;stroke-width:0.994068" width="3.6001546" x="83.048576" y="177.35622"></rect>
<rect class="rect_chair" height="3.4970672" id="S185" style="fill:#0000ff;stroke-width:0.994068" width="3.6001546" x="83.095055" y="181.04178"></rect>
<rect class="rect_chair" height="3.4970672" id="S186" style="fill:#0000ff;stroke-width:0.994068" width="3.6001546" x="83.12886" y="184.67847"></rect>
<rect class="rect_chair" height="3.4970672" id="S187" style="fill:#0000ff;stroke-width:0.994068" width="3.6001546" x="83.108765" y="188.30223"></rect>
<rect class="rect_chair" height="3.4970672" id="S188" style="fill:#0000ff;stroke-width:0.994068" width="3.6001546" x="83.089401" y="191.93883"></rect>
<rect class="rect_chair" height="3.4970672" id="S189" style="fill:#0000ff;stroke-width:0.994068" width="3.6001546" x="83.092712" y="195.55061"></rect>
<rect class="rect_chair" height="3.4970672" id="S190" style="fill:#0000ff;stroke-width:0.994068" width="3.6001546" x="83.079025" y="199.17024"></rect>
<rect class="rect_chair" height="3.4970672" id="S191" style="fill:#0000ff;stroke-width:0.994068" width="3.6001546" x="94.358383" y="162.84511"></rect>
<rect class="rect_chair" height="3.4970672" id="S192" style="fill:#0000ff;stroke-width:0.994068" width="3.6001546" x="94.338287" y="166.46887"></rect>
<rect class="rect_chair" height="3.4970672" id="S193" style="fill:#0000ff;stroke-width:0.994068" width="3.6001546" x="94.318924" y="170.10547"></rect>
<rect class="rect_chair" height="3.4970672" id="S194" style="fill:#0000ff;stroke-width:0.994068" width="3.6001546" x="94.322235" y="173.71725"></rect>
<rect class="rect_chair" height="3.4970672" id="S195" style="fill:#0000ff;stroke-width:0.994068" width="3.6001546" x="94.308548" y="177.33688"></rect>
<rect class="rect_chair" height="3.4970672" id="S196" style="fill:#0000ff;stroke-width:0.994068" width="3.6001546" x="94.355026" y="181.02245"></rect>
<rect class="rect_chair" height="3.4970672" id="S197" style="fill:#0000ff;stroke-width:0.994068" width="3.6001546" x="94.388832" y="184.65913"></rect>
<rect class="rect_chair" height="3.4970672" id="S198" style="fill:#0000ff;stroke-width:0.994068" width="3.6001546" x="94.368736" y="188.2829"></rect>
<rect class="rect_chair" height="3.4970672" id="S199" style="fill:#0000ff;stroke-width:0.994068" width="3.6001546" x="94.349373" y="191.91949"></rect>
<rect class="rect_chair" height="3.4970672" id="S200" style="fill:#0000ff;stroke-width:0.994068" width="3.6001546" x="94.352684" y="195.53128"></rect>
<rect class="rect_chair" height="3.4970672" id="S201" style="fill:#0000ff;stroke-width:0.994068" width="3.6001546" x="94.338997" y="199.15091"></rect>
<rect class="rect_chair" height="3.4970672" id="S202" style="fill:#0000ff;stroke-width:0.994068" width="3.6001546" x="105.33536" y="162.88092"></rect>
<rect class="rect_chair" height="3.4970672" id="S203" style="fill:#0000ff;stroke-width:0.994068" width="3.6001546" x="105.31526" y="166.50468"></rect>
<rect class="rect_chair" height="3.4970672" id="S204" style="fill:#0000ff;stroke-width:0.994068" width="3.6001546" x="105.2959" y="170.14128"></rect>
<rect class="rect_chair" height="3.4970672" id="S205" style="fill:#0000ff;stroke-width:0.994068" width="3.6001546" x="105.29921" y="173.75307"></rect>
<rect class="rect_chair" height="3.4970672" id="S206" style="fill:#0000ff;stroke-width:0.994068" width="3.6001546" x="105.28552" y="177.3727"></rect>
<rect class="rect_chair" height="3.4970672" id="S207" style="fill:#0000ff;stroke-width:0.994068" width="3.6001546" x="105.332" y="181.05826"></rect>
<rect class="rect_chair" height="3.4970672" id="S208" style="fill:#0000ff;stroke-width:0.994068" width="3.6001546" x="105.3658" y="184.69495"></rect>
<rect class="rect_chair" height="3.4970672" id="S209" style="fill:#0000ff;stroke-width:0.994068" width="3.6001546" x="105.34571" y="188.31871"></rect>
<rect class="rect_chair" height="3.4970672" id="S210" style="fill:#0000ff;stroke-width:0.994068" width="3.6001546" x="105.32634" y="191.95531"></rect>
<rect class="rect_chair" height="3.4970672" id="S211" style="fill:#0000ff;stroke-width:0.994068" width="3.6001546" x="105.32966" y="195.56709"></rect>
<rect class="rect_chair" height="3.4970672" id="S212" style="fill:#0000ff;stroke-width:0.994068" width="3.6001546" x="105.31597" y="199.18672"></rect>
<rect class="rect_chair" height="3.4970672" id="S213" style="fill:#0000ff;stroke-width:0.994068" width="3.6001546" x="105.31139" y="202.76184"></rect>
<rect class="rect_chair" height="3.4970672" id="S214" style="fill:#0000ff;stroke-width:0.994068" width="3.6001546" x="105.2977" y="206.38147"></rect>
<rect class="rect_chair" height="3.4970672" id="S215" style="fill:#0000ff;stroke-width:0.994068" width="3.6001546" x="150.55087" y="162.96419"></rect>
<rect class="rect_chair" height="3.4970672" id="S216" style="fill:#0000ff;stroke-width:0.994068" width="3.6001546" x="150.53719" y="166.58382"></rect>
<rect class="rect_chair" height="3.4970672" id="S217" style="fill:#0000ff;stroke-width:0.994068" width="3.6001546" x="150.51506" y="170.17906"></rect>
<rect class="rect_chair" height="3.4970672" id="S218" style="fill:#0000ff;stroke-width:0.994068" width="3.6001546" x="150.50137" y="173.79869"></rect>
<rect class="rect_chair" height="3.4970672" id="S219" style="fill:#0000ff;stroke-width:0.994068" width="3.6001546" x="150.44344" y="177.35812"></rect>
<rect class="rect_chair" height="3.4970672" id="S220" style="fill:#0000ff;stroke-width:0.994068" width="3.6001546" x="150.42975" y="180.97775"></rect>
</svg>
