<?xml version="1.0" encoding="UTF-8" standalone="no"?>
<!-- Created with Inkscape (http://www.inkscape.org/) -->

<svg
   version="1.1"
   id="svg1"
   width="384"
   height="271.67999"
   viewBox="0 0 384 271.67999"
   xmlns="http://www.w3.org/2000/svg"
   xmlns:svg="http://www.w3.org/2000/svg">
  <defs
     id="defs1" />
  <g
     id="g1">
    <path
       style="fill:#000000"
       d="m 11.780904,63.154124 44.997664,0.151739 z"
       id="path1" />
    <path
       style="fill:#000000"
       d="m 11.750786,63.045608 82.021228,1.021938 z"
       id="path2" />
    <rect
       style="fill:#000000"
       id="rect7"
       width="83.866234"
       height="2.1696341"
       x="10.681948"
       y="62.27335"
       ry="0.52501619" />
    <rect
       style="fill:#000000"
       id="rect8"
       width="2.1990621"
       height="29.889544"
       x="55.678234"
       y="64.257446"
       ry="0.52501619" />
    <rect
       style="fill:#000000"
       id="rect9"
       width="1.9246535"
       height="30.14028"
       x="92.44043"
       y="64.267075"
       ry="0.52501619" />
    <rect
       style="fill:#000000"
       id="rect10"
       width="38.58411"
       height="1.8887259"
       x="94.44133"
       y="86.191284"
       ry="0.52501619" />
    <rect
       style="fill:#000000"
       id="rect11"
       width="1.4772638"
       height="6.3813181"
       x="106.10663"
       y="88.109108"
       ry="0.52501619" />
    <rect
       style="fill:#000000"
       id="rect12"
       width="1.9638326"
       height="22.500677"
       x="130.89238"
       y="63.824398"
       ry="0.52501619" />
    <rect
       style="fill:#000000"
       id="rect13"
       width="75.860405"
       height="1.9411063"
       x="131.54852"
       y="63.740616"
       ry="0.52501619" />
    <rect
       style="fill:#000000"
       id="rect14"
       width="1.9558668"
       height="24.183104"
       x="205.44649"
       y="65.118774"
       ry="0.52501619" />
    <rect
       style="fill:#000000"
       id="rect15"
       width="133.18607"
       height="2.1234782"
       x="205.81291"
       y="87.141495"
       ry="0.52501619" />
    <rect
       style="fill:#000000"
       id="rect16"
       width="1.9353831"
       height="28.300323"
       x="336.99954"
       y="88.714027"
       ry="0.52501619" />
    <path
       style="fill:#000000"
       d="m 338.3421,115.47203 34.11202,5.9869 -4.01372,37.64351 -2.05054,-0.36452 0.45878,-1.75385 3.56448,-33.99741 -32.62038,-5.81688 z"
       id="path16" />
    <rect
       style="fill:#000000"
       id="rect17"
       width="0.96193165"
       height="2.4164395"
       x="352.2778"
       y="119.4961"
       ry="0.48096582" />
    <rect
       style="fill:#000000"
       id="rect18"
       width="1.322771"
       height="2.2718279"
       x="351.12231"
       y="125.24631"
       ry="0.48096582" />
    <rect
       style="fill:#000000"
       id="rect19"
       width="15.744618"
       height="0.90020156"
       x="336.28571"
       y="126.67599"
       ry="0.45010078" />
    <rect
       style="fill:#000000"
       id="rect20"
       width="1.1768839"
       height="27.340797"
       x="336.33444"
       y="126.71564"
       ry="0.45010078" />
    <path
       style="fill:#000000"
       d="m 336.95186,153.61306 9.58368,0.64478 7.17287,0.7895 5.3842,0.70685 7.71177,1.4091 -0.0171,1.6028 -6.58305,-1.06195 -4.99359,-0.91043 -5.49742,-0.6181 -4.79483,-0.50051 -6.13151,-0.36452 -2.45001,-0.40533 z"
       id="path20" />
    <path
       style="fill:#000000"
       d="m 336.62424,153.69778 -0.82951,-0.68823 -9.45838,-0.2975 -12.33544,-0.62212 -17.27247,-0.0222 -10.13741,0.9171 -15.73829,1.29024 -15.40804,2.07227 -18.21566,3.20134 -15.47482,3.62931 -14.80729,4.23352 -14.67555,4.69596 -15.66266,6.12542 -20.92523,9.58092 c 0,0 -8.66003,4.33789 -8.80717,4.46147 -0.14714,0.12357 -10.37088,5.52064 -10.37088,5.52064 l -16.77403,10.16891 -20.419093,14.25942 -10.481813,8.24125 1.315988,1.50682 16.959108,-13.06482 14.85821,-10.13661 25.16656,-14.76901 22.12707,-10.63539 19.6189,-7.93801 24.63984,-8.11986 16.28157,-4.33375 25.06471,-4.80173 23.418,-2.9028 11.92103,-0.69858 27.53495,-0.61408 c 0,0 9.13088,0.89905 9.38286,0.68639 0.25198,-0.21266 9.5877,0.2291 9.5877,0.2291 z"
       id="path21" />
    <path
       style="fill:#000000"
       d="m 155.91124,187.70956 -12.8709,-23.8009 -69.397021,36.33485 0.534974,0.9648 68.316687,-36.0531 12.2465,23.17224 z"
       id="path22" />
    <path
       style="fill:#000000"
       d="m 80.347255,237.4168 1.336235,1.25308 -11.56117,10.86993 -5.307876,-0.59931 -54.092129,-185.025712 2.473974,0.08372 c 0,0 41.781301,145.749262 41.968101,145.596262 0.186799,-0.153 11.459953,-6.14312 11.585253,-5.98897 0.125299,0.15416 0.637762,0.96734 0.637762,0.96734 l -11.754579,6.29934 10.628954,36.1959 3.339976,0.0392 z"
       id="path23" />
    <rect
       style="fill:#000000"
       id="rect24"
       width="120.37799"
       height="1.5545044"
       x="22.731739"
       y="99.578339"
       ry="0.45010078" />
    <rect
       style="fill:#000000"
       id="rect25"
       width="20.308346"
       height="1.4773974"
       x="38.670162"
       y="154.44836"
       ry="0.45010078" />
    <rect
       style="fill:#000000"
       id="rect26"
       width="34.114796"
       height="1.4837849"
       x="62.891933"
       y="154.49472"
       ry="0.45010078" />
    <rect
       style="fill:#000000"
       id="rect27"
       width="16.140198"
       height="1.2160034"
       x="78.61969"
       y="141.91779"
       ry="0.45010078" />
    <rect
       style="fill:#000000"
       id="rect28"
       width="32.541584"
       height="1.4023019"
       x="64.40213"
       y="127.9701"
       ry="0.45010078" />
    <rect
       style="fill:#000000"
       id="rect29"
       width="1.5562909"
       height="4.9987755"
       x="92.912895"
       y="128.72572"
       ry="0.45010078" />
    <rect
       style="fill:#000000"
       id="rect30"
       width="1.1093428"
       height="13.246859"
       x="78.636108"
       y="129.1844"
       ry="0.45010078" />
    <rect
       style="fill:#000000"
       id="rect31"
       width="1.4035103"
       height="17.188082"
       x="93.061188"
       y="137.65311"
       ry="0.45010078" />
    <rect
       style="fill:#000000"
       id="rect32"
       width="1.2208641"
       height="12.450154"
       x="93.549049"
       y="115.63647"
       ry="0.45010078" />
    <rect
       style="fill:#000000"
       id="rect33"
       width="1.0105969"
       height="53.937786"
       x="64.164589"
       y="100.85507"
       ry="0.45010078" />
    <rect
       style="fill:#000000"
       id="rect34"
       width="1.4963819"
       height="56.398323"
       x="56.175453"
       y="98.019569"
       ry="0.45010078" />
    <rect
       style="fill:#000000"
       id="rect35"
       width="32.342884"
       height="1.0307946"
       x="102.74644"
       y="116.0173"
       ry="0.45010078" />
    <rect
       style="fill:#000000"
       id="rect36"
       width="4.3973203"
       height="0.99868476"
       x="138.6644"
       y="116.19546"
       ry="0.45010078" />
    <rect
       style="fill:#000000"
       id="rect37"
       width="1.0981216"
       height="25.135437"
       x="142.13174"
       y="100.73527"
       ry="0.45010078" />
    <rect
       style="fill:#000000"
       id="rect38"
       width="0.9593243"
       height="15.302578"
       x="129.10379"
       y="101.13284"
       ry="0.45010078" />
    <rect
       style="fill:#000000"
       id="rect39"
       width="0.97451603"
       height="7.3141356"
       x="131.94637"
       y="117.12077"
       ry="0.45010078" />
    <rect
       style="fill:#000000"
       id="rect40"
       width="1.0748161"
       height="2.4819517"
       x="131.89441"
       y="128.07661"
       ry="0.45010078" />
    <rect
       style="fill:#000000"
       id="rect41"
       width="29.118782"
       height="0.9790045"
       x="103.2041"
       y="128.98483"
       ry="0.45010078" />
    <rect
       style="fill:#000000"
       id="rect42"
       width="2.9195776"
       height="1.3011386"
       x="100.17663"
       y="128.15378"
       ry="0.45010078" />
    <rect
       style="fill:#000000"
       id="rect43"
       width="11.341157"
       height="1.4023019"
       x="131.85797"
       y="134.23514"
       ry="0.45010078" />
    <rect
       style="fill:#000000"
       id="rect44"
       width="40.100426"
       height="0.94522095"
       x="102.93342"
       y="142.02022"
       ry="0.28510091" />
    <rect
       style="fill:#000000"
       id="rect45"
       width="1.1685561"
       height="7.131835"
       x="131.82501"
       y="135.17703"
       ry="0.28510091" />
    <rect
       style="fill:#000000"
       id="rect46"
       width="1.1443874"
       height="14.278171"
       x="141.96982"
       y="130.0265"
       ry="0.28510091" />
    <rect
       style="fill:#000000"
       id="rect47"
       width="43.324341"
       height="1.435791"
       x="100.13855"
       y="154.49829"
       ry="0.28510091" />
    <rect
       style="fill:#000000"
       id="rect48"
       width="1.0751953"
       height="6.5175781"
       x="142.02295"
       y="148.21643"
       ry="0.28510091" />
    <rect
       style="fill:#000000"
       id="rect49"
       width="0.8885498"
       height="54.0896"
       x="102.71412"
       y="100.73633"
       ry="0.28510091" />
    <rect
       style="fill:#000000"
       id="rect50"
       width="1.5965576"
       height="1.6923828"
       x="105.94666"
       y="98.284912"
       ry="0.28510091" />
    <rect
       style="fill:#000000"
       id="rect51"
       width="14.139892"
       height="0.53585434"
       x="80.208626"
       y="115.57726"
       ry="0.26792717" />
    <rect
       style="fill:#000000"
       id="rect52"
       width="0.5948087"
       height="12.283822"
       x="92.061295"
       y="115.95334"
       ry="0.26792717" />
    <rect
       style="fill:#000000"
       id="rect53"
       width="0.58151591"
       height="12.265178"
       x="90.575272"
       y="115.89646"
       ry="0.26792717" />
    <rect
       style="fill:#000000"
       id="rect54"
       width="0.71323526"
       height="12.510404"
       x="89.001541"
       y="115.76482"
       ry="0.26792717" />
    <rect
       style="fill:#000000"
       id="rect55"
       width="2.294342"
       height="0.68014526"
       x="80.470276"
       y="116.06113"
       ry="0.26792717" />
    <rect
       style="fill:#000000"
       id="rect56"
       width="1.7221375"
       height="0.650177"
       x="80.907013"
       y="116.67371"
       ry="0.26792717" />
    <rect
       style="fill:#000000"
       id="rect57"
       width="1.104187"
       height="0.53399658"
       x="81.552734"
       y="117.22482"
       ry="0.26699829" />
    <rect
       style="fill:#000000"
       id="rect58"
       width="1.2653503"
       height="0.44274902"
       x="91.996063"
       y="111.7038"
       ry="0.22137451" />
    <rect
       style="fill:#000000"
       id="rect59"
       width="1.6271667"
       height="0.4213562"
       x="92.027954"
       y="112.11755"
       ry="0.2106781" />
    <rect
       style="fill:#000000"
       id="rect60"
       width="2.0812073"
       height="0.53665161"
       x="92.111023"
       y="112.52655"
       ry="0.2106781" />
    <rect
       style="fill:#000000"
       id="rect61"
       width="14.711792"
       height="1.0812378"
       x="79.902466"
       y="112.79598"
       ry="0.2106781" />
    <rect
       style="fill:#000000"
       id="rect62"
       width="0.68212891"
       height="11.87915"
       x="79.967712"
       y="101.06982"
       ry="0.2106781" />
    <rect
       style="fill:#000000"
       id="rect63"
       width="1.0179443"
       height="12.120911"
       x="81.582458"
       y="100.90247"
       ry="0.2106781" />
    <rect
       style="fill:#000000"
       id="rect64"
       width="0.64746094"
       height="12.05011"
       x="83.397217"
       y="101.03754"
       ry="0.2106781" />
    <rect
       style="fill:#000000"
       id="rect65"
       width="0.69464111"
       height="12.202026"
       x="84.818176"
       y="100.98138"
       ry="0.2106781" />
    <rect
       style="fill:#000000"
       id="rect66"
       width="1.2801205"
       height="1.9233097"
       x="92.448036"
       y="97.79644"
       ry="0.2106781" />
    <rect
       style="fill:#000000"
       id="rect67"
       width="16.582138"
       height="1.0879363"
       x="155.06001"
       y="148.19611"
       ry="0.2106781" />
    <rect
       style="fill:#000000"
       id="rect68"
       width="14.185812"
       height="0.74310088"
       x="156.61432"
       y="153.37199"
       ry="0.2106781" />
    <rect
       style="fill:#000000"
       id="rect69"
       width="14.168376"
       height="0.75449467"
       x="156.81975"
       y="156.27448"
       ry="0.2106781" />
    <rect
       style="fill:#000000"
       id="rect70"
       width="16.87829"
       height="1.0983806"
       x="154.92863"
       y="161.17537"
       ry="0.2106781" />
    <rect
       style="fill:#000000"
       id="rect71"
       width="0.47344735"
       height="4.4358177"
       x="170.45218"
       y="156.92401"
       ry="0.2106781" />
    <rect
       style="fill:#000000"
       id="rect72"
       width="0.66921371"
       height="4.6242471"
       x="168.75993"
       y="156.86644"
       ry="0.2106781" />
    <rect
       style="fill:#000000"
       id="rect73"
       width="0.7643348"
       height="4.4849319"
       x="167.21445"
       y="156.86462"
       ry="0.2106781" />
    <rect
       style="fill:#000000"
       id="rect74"
       width="0.94551361"
       height="4.294517"
       x="165.42406"
       y="156.94629"
       ry="0.2106781" />
    <rect
       style="fill:#000000"
       id="rect75"
       width="0.93101239"
       height="4.5295577"
       x="161.27939"
       y="149.10069"
       ry="0.2106781" />
    <rect
       style="fill:#000000"
       id="rect76"
       width="0.69985616"
       height="4.3499322"
       x="159.75166"
       y="149.14015"
       ry="0.2106781" />
    <rect
       style="fill:#000000"
       id="rect77"
       width="0.60136878"
       height="4.3198943"
       x="158.29007"
       y="149.18468"
       ry="0.2106781" />
    <rect
       style="fill:#000000"
       id="rect78"
       width="0.91098696"
       height="4.4140658"
       x="156.69226"
       y="149.194"
       ry="0.2106781" />
    <path
       style="fill:#000000"
       d="m 157.21494,156.99133 c 0.0432,-0.014 1.80401,0.0174 1.80401,0.0174 l 0.0596,1.52081 -0.50378,0.0379 -0.0453,-0.47827 -0.77856,-0.0541 c 0,0 0.0638,-0.40621 -0.002,-0.44125 -0.0656,-0.035 -0.54239,0.0347 -0.54239,0.003 0,-0.0313 0.008,-0.60584 0.008,-0.60584 z"
       id="path78" />
    <path
       style="fill:#000000"
       d="m 168.70075,153.40108 c 0.007,-0.0987 -0.0202,-1.32163 -0.0202,-1.32163 l 0.88917,-0.005 0.0232,0.46065 0.51113,-0.0499 -0.0303,0.4769 0.61874,0.0313 -0.0271,0.42682 z"
       id="path79" />
    <path
       style="fill:#000000"
       d="m 171.68262,161.2738 1.63073,-1.01428 1.40979,-1.22357 0.80127,-1.38281 0.16248,-2.44263 -0.19952,-1.92261 -0.5246,-1.02362 -0.83905,-0.76257 c 0,0 -0.95905,-1.1828 -1.33795,-1.26788 -0.37891,-0.0851 -0.8993,-0.56733 -0.9812,-0.54792 -0.0819,0.0194 -0.56629,-0.31079 -0.56629,-0.31079 l 0.23676,-0.919 c 0,0 1.26068,0.27343 1.41058,0.28906 0.1499,0.0156 1.24878,0.96057 1.24878,0.96057 l 1.44464,1.66205 1.08984,2.22937 0.31849,2.14959 -0.6789,2.89899 -1.44183,1.68726 -3.15723,1.8081 z"
       id="path80" />
    <rect
       style="fill:#666666"
       id="rect80"
       width="9.7937012"
       height="40.881592"
       x="159.01172"
       y="101.18018"
       ry="0.2106781" />
    <rect
       style="fill:#666666"
       id="rect81"
       width="34.809082"
       height="41.248535"
       x="171.27661"
       y="101.13135"
       ry="0.2106781" />
    <rect
       style="fill:#666666"
       id="rect82"
       width="13.944336"
       height="29.877197"
       x="209.59155"
       y="106.74878"
       ry="0.2106781" />
    <rect
       style="fill:#666666"
       id="rect83"
       width="9.7780762"
       height="41.160645"
       x="227.41626"
       y="101.10913"
       ry="0.2106781" />
    <rect
       style="fill:#666666"
       id="rect84"
       width="9.8908691"
       height="41.303711"
       x="239.50391"
       y="101.07275"
       ry="0.2106781" />
    <rect
       style="fill:#666666"
       id="rect85"
       width="9.8791504"
       height="40.869385"
       x="252.84546"
       y="101.32324"
       ry="0.2106781" />
    <rect
       style="fill:#666666"
       id="rect86"
       width="9.510498"
       height="40.733887"
       x="265.38599"
       y="101.27612"
       ry="0.2106781" />
    <rect
       style="fill:#666666"
       id="rect87"
       width="14.369629"
       height="30.451416"
       x="278.04736"
       y="106.29736"
       ry="0.2106781" />
    <rect
       style="fill:#666666"
       id="rect88"
       width="28.670166"
       height="40.754639"
       x="295.82446"
       y="101.17456"
       ry="0.2106781" />
    <text
       xml:space="preserve"
       style="fill:#666666"
       x="67.085548"
       y="221.3315"
       id="text1"><tspan
         id="tspan1"></tspan></text>
    <text
       xml:space="preserve"
       style="font-size:2.66667px;text-align:center;text-anchor:middle;fill:#666666"
       x="78.485153"
       y="218.08046"
       id="text3"><tspan
         id="tspan3"
         x="78.485153"
         y="218.08046"
         style="font-size:2.66667px;text-align:center;text-anchor:middle;fill:#000000">EINGANG</tspan><tspan
         x="78.485153"
         y="221.4138"
         id="tspan4"
         style="font-size:2.66667px;text-align:center;text-anchor:middle;fill:#000000">PETERSBOGEN</tspan></text>
    <text
       xml:space="preserve"
       style="font-size:2.66667px;text-align:center;text-anchor:middle;fill:#000000"
       x="119.90519"
       y="190.7291"
       id="text5"><tspan
         id="tspan5"
         x="119.90519"
         y="190.7291"
         style="font-size:2.66667px">GARDEROBEN</tspan><tspan
         x="119.90519"
         y="194.06244"
         id="tspan6"
         style="font-size:2.66667px">SCHLIESSFÄCHER</tspan></text>
    <text
       xml:space="preserve"
       style="font-size:2.66667px;text-align:center;text-anchor:middle;fill:#000000"
       x="159.65797"
       y="173.43829"
       id="text7"><tspan
         id="tspan7"
         x="159.65797"
         y="173.43829">SERVICE</tspan></text>
    <text
       xml:space="preserve"
       style="font-size:2.66667px;text-align:center;text-anchor:middle;fill:#000000"
       x="123.29202"
       y="148.29964"
       id="text8"><tspan
         id="tspan8"
         x="123.29202"
         y="148.29964">KOPIERER</tspan><tspan
         x="123.29202"
         y="151.63298"
         id="tspan9">SCANNER</tspan></text>
    <text
       xml:space="preserve"
       style="font-size:2.66667px;text-align:center;text-anchor:middle;fill:#000000"
       x="125.94228"
       y="136.54916"
       id="text10"><tspan
         id="tspan10"
         x="125.94228"
         y="136.54916">WC</tspan></text>
    <text
       xml:space="preserve"
       style="font-size:2.66667px;text-align:center;text-anchor:middle;fill:#000000"
       x="125.37637"
       y="124.59319"
       id="text11"><tspan
         id="tspan11"
         x="125.37637"
         y="124.59319">WC</tspan></text>
    <text
       xml:space="preserve"
       style="font-size:2.66667px;text-align:center;text-anchor:middle;fill:#000000"
       x="135.63599"
       y="113.58383"
       id="text12"><tspan
         id="tspan12"
         x="135.63599"
         y="113.58383">WC</tspan></text>
    <text
       xml:space="preserve"
       style="font-size:2.66667px;text-align:center;text-anchor:middle;fill:#000000"
       x="86.252197"
       y="136.81955"
       id="text13"><tspan
         id="tspan13"
         x="86.252197"
         y="136.81955">AUFZUG</tspan></text>
    <text
       xml:space="preserve"
       style="font-size:2.66667px;text-align:center;text-anchor:middle;fill:#000000"
       x="76.528839"
       y="122.05984"
       id="text14"><tspan
         id="tspan14"
         x="76.528839"
         y="122.05984">EINGANG</tspan><tspan
         x="76.528839"
         y="125.39317"
         id="tspan15">BURGSTRASSE</tspan></text>
    <text
       xml:space="preserve"
       style="font-size:2.66667px;text-align:center;text-anchor:middle;fill:#000000"
       x="42.355854"
       y="115.44194"
       id="text16"><tspan
         id="tspan16"
         x="42.355854"
         y="115.44194">VERWALTUNG</tspan></text>
    <text
       xml:space="preserve"
       style="font-size:2.66667px;text-align:center;text-anchor:middle;fill:#000000"
       x="36.628052"
       y="82.644264"
       id="text17"><tspan
         id="tspan17"
         x="36.628052"
         y="82.644264">PARLATORIUM</tspan><tspan
         x="36.628052"
         y="85.9776"
         id="tspan18">3</tspan></text>
    <text
       xml:space="preserve"
       style="font-size:2.66667px;text-align:center;text-anchor:middle;fill:#000000"
       x="76.145012"
       y="82.482529"
       id="text19"><tspan
         id="tspan19"
         x="76.145012"
         y="82.482529">PARLATORIUM</tspan><tspan
         x="76.145012"
         y="85.815865"
         id="tspan20">2</tspan></text>
    <text
       xml:space="preserve"
       style="font-size:2.66667px;text-align:center;text-anchor:middle;fill:#000000"
       x="353.13513"
       y="139.92433"
       id="text21"><tspan
         id="tspan21"
         x="353.13513"
         y="139.92433">PARLATORIUM</tspan><tspan
         x="353.13513"
         y="143.25768"
         id="tspan22">1</tspan></text>
    <text
       xml:space="preserve"
       style="font-size:8px;text-align:center;text-anchor:middle;fill:#000000"
       x="168.90056"
       y="60.820744"
       id="text23"><tspan
         id="tspan23"
         x="168.90056"
         y="60.820744"
         style="font-style:normal;font-variant:normal;font-weight:normal;font-stretch:normal;font-size:8px;font-family:sans-serif;-inkscape-font-specification:sans-serif">BIBLIOTHEK RECHT 1 - 2.OG</tspan></text>
    <rect
       style="fill:#000000"
       id="rect23"
       width="32.423126"
       height="3.8065298"
       x="21.496117"
       y="65.435066"
       ry="0.2106781" />
    <rect
       style="fill:#000000"
       id="rect79"
       width="31.478113"
       height="3.6274359"
       x="59.0825"
       y="66.197289"
       ry="0.2106781" />
    <rect
       style="fill:#000000"
       id="rect89"
       width="3.3633037"
       height="22.062275"
       x="332.0256"
       y="127.04842"
       ry="0.2106781" />
    <rect
       style="fill:#000000"
       id="rect90"
       width="2.7402084"
       height="26.117332"
       x="333.15894"
       y="90.287209"
       ry="0.2106781" />
    <rect
       style="fill:#000000"
       id="rect91"
       width="28.162966"
       height="3.3143966"
       x="306.17114"
       y="90.312134"
       ry="0.2106781" />
    <rect
       style="fill:#0000ff"
       class="rect_chair"
       id="rect92"
       width="3.725286"
       height="3.5205045"
       x="108.50764"
       y="90.492577"
       ry="0.2106781" />
    <rect
       style="fill:#0000ff"
       class="rect_chair"
       id="rect92-3"
       width="3.725286"
       height="3.5205045"
       x="118.60926"
       y="90.519371"
       ry="0.2106781" />
    <rect
       style="fill:#0000ff"
       class="rect_chair"
       id="rect92-1"
       width="3.725286"
       height="3.5205045"
       x="128.79807"
       y="90.490898"
       ry="0.2106781" />
    <rect
       style="fill:#0000ff"
       class="rect_chair"
       id="rect92-36"
       width="3.725286"
       height="3.5205045"
       x="136.06923"
       y="72.506378"
       ry="0.2106781" />
    <rect
       style="fill:#0000ff"
       class="rect_chair"
       id="rect92-2"
       width="3.725286"
       height="3.5205045"
       x="135.99792"
       y="79.662376"
       ry="0.2106781" />
    <rect
       style="fill:#0000ff"
       class="rect_chair"
       id="rect92-22"
       width="3.725286"
       height="3.5205045"
       x="135.96353"
       y="83.214798"
       ry="0.2106781" />
    <rect
       style="fill:#0000ff"
       class="rect_chair"
       id="rect92-6"
       width="3.725286"
       height="3.5205045"
       x="135.96872"
       y="86.781036"
       ry="0.2106781" />
    <rect
       style="fill:#0000ff"
       class="rect_chair"
       id="rect92-19"
       width="3.725286"
       height="3.5205045"
       x="136"
       y="90.37439"
       ry="0.2106781" />
    <rect
       style="fill:#0000ff"
       class="rect_chair"
       id="rect92-18"
       width="3.725286"
       height="3.5205045"
       x="136.03433"
       y="76.085884"
       ry="0.2106781" />
    <rect
       style="fill:#0000ff"
       class="rect_chair"
       id="rect92-36-5"
       width="3.725286"
       height="3.5205045"
       x="146.31189"
       y="72.364723"
       ry="0.2106781" />
    <rect
       style="fill:#0000ff"
       class="rect_chair"
       id="rect92-2-0"
       width="3.725286"
       height="3.5205045"
       x="146.24059"
       y="79.520721"
       ry="0.2106781" />
    <rect
       style="fill:#0000ff"
       class="rect_chair"
       id="rect92-22-3"
       width="3.725286"
       height="3.5205045"
       x="146.20619"
       y="83.073143"
       ry="0.2106781" />
    <rect
       style="fill:#0000ff"
       class="rect_chair"
       id="rect92-6-6"
       width="3.725286"
       height="3.5205045"
       x="146.21138"
       y="86.639381"
       ry="0.2106781" />
    <rect
       style="fill:#0000ff"
       class="rect_chair"
       id="rect92-19-1"
       width="3.725286"
       height="3.5205045"
       x="146.24266"
       y="90.232735"
       ry="0.2106781" />
    <rect
       style="fill:#0000ff"
       class="rect_chair"
       id="rect92-18-0"
       width="3.725286"
       height="3.5205045"
       x="146.27699"
       y="75.944229"
       ry="0.2106781" />
    <rect
       style="fill:#0000ff"
       class="rect_chair"
       id="rect92-36-6"
       width="3.725286"
       height="3.5205045"
       x="150.11829"
       y="72.358414"
       ry="0.2106781" />
    <rect
       style="fill:#0000ff"
       class="rect_chair"
       id="rect92-2-1"
       width="3.725286"
       height="3.5205045"
       x="150.04698"
       y="79.514412"
       ry="0.2106781" />
    <rect
       style="fill:#0000ff"
       class="rect_chair"
       id="rect92-22-5"
       width="3.725286"
       height="3.5205045"
       x="150.01259"
       y="83.066833"
       ry="0.2106781" />
    <rect
       style="fill:#0000ff"
       class="rect_chair"
       id="rect92-6-5"
       width="3.725286"
       height="3.5205045"
       x="150.01778"
       y="86.633072"
       ry="0.2106781" />
    <rect
       style="fill:#0000ff"
       class="rect_chair"
       id="rect92-19-4"
       width="3.725286"
       height="3.5205045"
       x="150.04906"
       y="90.226425"
       ry="0.2106781" />
    <rect
       style="fill:#0000ff"
       class="rect_chair"
       id="rect92-18-7"
       width="3.725286"
       height="3.5205045"
       x="150.08339"
       y="75.93792"
       ry="0.2106781" />
    <rect
       style="fill:#0000ff"
       class="rect_chair"
       id="rect92-36-3"
       width="3.725286"
       height="3.5205045"
       x="159.77087"
       y="72.2631"
       ry="0.2106781" />
    <rect
       style="fill:#0000ff"
       class="rect_chair"
       id="rect92-2-7"
       width="3.725286"
       height="3.5205045"
       x="159.69957"
       y="79.419098"
       ry="0.2106781" />
    <rect
       style="fill:#0000ff"
       class="rect_chair"
       id="rect92-22-4"
       width="3.725286"
       height="3.5205045"
       x="159.66518"
       y="82.971519"
       ry="0.2106781" />
    <rect
       style="fill:#0000ff"
       class="rect_chair"
       id="rect92-6-52"
       width="3.725286"
       height="3.5205045"
       x="159.67036"
       y="86.537758"
       ry="0.2106781" />
    <rect
       style="fill:#0000ff"
       class="rect_chair"
       id="rect92-19-5"
       width="3.725286"
       height="3.5205045"
       x="159.70164"
       y="90.131111"
       ry="0.2106781" />
    <rect
       style="fill:#0000ff"
       class="rect_chair"
       id="rect92-18-4"
       width="3.725286"
       height="3.5205045"
       x="159.73598"
       y="75.842606"
       ry="0.2106781" />
    <rect
       style="fill:#0000ff"
       class="rect_chair"
       id="rect92-36-0"
       width="3.725286"
       height="3.5205045"
       x="163.55933"
       y="72.2733"
       ry="0.2106781" />
    <rect
       style="fill:#0000ff"
       class="rect_chair"
       id="rect92-2-78"
       width="3.725286"
       height="3.5205045"
       x="163.48802"
       y="79.429298"
       ry="0.2106781" />
    <rect
       style="fill:#0000ff"
       class="rect_chair"
       id="rect92-22-6"
       width="3.725286"
       height="3.5205045"
       x="163.45363"
       y="82.98172"
       ry="0.2106781" />
    <rect
       style="fill:#0000ff"
       class="rect_chair"
       id="rect92-6-8"
       width="3.725286"
       height="3.5205045"
       x="163.45882"
       y="86.547958"
       ry="0.2106781" />
    <rect
       style="fill:#0000ff"
       class="rect_chair"
       id="rect92-19-8"
       width="3.725286"
       height="3.5205045"
       x="163.4901"
       y="90.141312"
       ry="0.2106781" />
    <rect
       style="fill:#0000ff"
       class="rect_chair"
       id="rect92-18-43"
       width="3.725286"
       height="3.5205045"
       x="163.52443"
       y="75.852806"
       ry="0.2106781" />
    <rect
       style="fill:#0000ff"
       class="rect_chair"
       id="rect92-36-06"
       width="3.725286"
       height="3.5205045"
       x="173.31711"
       y="72.345215"
       ry="0.2106781" />
    <rect
       style="fill:#0000ff"
       class="rect_chair"
       id="rect92-2-8"
       width="3.725286"
       height="3.5205045"
       x="173.2458"
       y="79.501213"
       ry="0.2106781" />
    <rect
       style="fill:#0000ff"
       class="rect_chair"
       id="rect92-22-9"
       width="3.725286"
       height="3.5205045"
       x="173.21141"
       y="83.053635"
       ry="0.2106781" />
    <rect
       style="fill:#0000ff"
       class="rect_chair"
       id="rect92-6-2"
       width="3.725286"
       height="3.5205045"
       x="173.2166"
       y="86.619873"
       ry="0.2106781" />
    <rect
       style="fill:#0000ff"
       class="rect_chair"
       id="rect92-19-6"
       width="3.725286"
       height="3.5205045"
       x="173.24788"
       y="90.213226"
       ry="0.2106781" />
    <rect
       style="fill:#0000ff"
       class="rect_chair"
       id="rect92-18-6"
       width="3.725286"
       height="3.5205045"
       x="173.28221"
       y="75.924721"
       ry="0.2106781" />
    <rect
       style="fill:#0000ff"
       class="rect_chair"
       id="rect92-36-4"
       width="3.725286"
       height="3.5205045"
       x="177.14299"
       y="72.303825"
       ry="0.2106781" />
    <rect
       style="fill:#0000ff"
       class="rect_chair"
       id="rect92-2-87"
       width="3.725286"
       height="3.5205045"
       x="177.07169"
       y="79.459824"
       ry="0.2106781" />
    <rect
       style="fill:#0000ff"
       class="rect_chair"
       id="rect92-22-1"
       width="3.725286"
       height="3.5205045"
       x="177.03729"
       y="83.012245"
       ry="0.2106781" />
    <rect
       style="fill:#0000ff"
       class="rect_chair"
       id="rect92-6-7"
       width="3.725286"
       height="3.5205045"
       x="177.04248"
       y="86.578484"
       ry="0.2106781" />
    <rect
       style="fill:#0000ff"
       class="rect_chair"
       id="rect92-19-2"
       width="3.725286"
       height="3.5205045"
       x="177.07376"
       y="90.171837"
       ry="0.2106781" />
    <rect
       style="fill:#0000ff"
       class="rect_chair"
       id="rect92-18-72"
       width="3.725286"
       height="3.5205045"
       x="177.10809"
       y="75.883331"
       ry="0.2106781" />
    <rect
       style="fill:#0000ff"
       class="rect_chair"
       id="rect92-36-61"
       width="3.725286"
       height="3.5205045"
       x="186.74939"
       y="72.337303"
       ry="0.2106781" />
    <rect
       style="fill:#0000ff"
       class="rect_chair"
       id="rect92-2-5"
       width="3.725286"
       height="3.5205045"
       x="186.67809"
       y="79.493301"
       ry="0.2106781" />
    <rect
       style="fill:#0000ff"
       class="rect_chair"
       id="rect92-22-94"
       width="3.725286"
       height="3.5205045"
       x="186.64369"
       y="83.045723"
       ry="0.2106781" />
    <rect
       style="fill:#0000ff"
       class="rect_chair"
       id="rect92-6-9"
       width="3.725286"
       height="3.5205045"
       x="186.64888"
       y="86.611961"
       ry="0.2106781" />
    <rect
       style="fill:#0000ff"
       class="rect_chair"
       id="rect92-19-0"
       width="3.725286"
       height="3.5205045"
       x="186.68016"
       y="90.205315"
       ry="0.2106781" />
    <rect
       style="fill:#0000ff"
       class="rect_chair"
       id="rect92-18-9"
       width="3.725286"
       height="3.5205045"
       x="186.71449"
       y="75.916809"
       ry="0.2106781" />
    <rect
       style="fill:#0000ff"
       class="rect_chair"
       id="rect92-36-1"
       width="3.725286"
       height="3.5205045"
       x="190.59099"
       y="72.301773"
       ry="0.2106781" />
    <rect
       style="fill:#0000ff"
       class="rect_chair"
       id="rect92-2-59"
       width="3.725286"
       height="3.5205045"
       x="190.51968"
       y="79.457771"
       ry="0.2106781" />
    <rect
       style="fill:#0000ff"
       class="rect_chair"
       id="rect92-22-7"
       width="3.725286"
       height="3.5205045"
       x="190.48529"
       y="83.010193"
       ry="0.2106781" />
    <rect
       style="fill:#0000ff"
       class="rect_chair"
       id="rect92-6-76"
       width="3.725286"
       height="3.5205045"
       x="190.49048"
       y="86.576431"
       ry="0.2106781" />
    <rect
       style="fill:#0000ff"
       class="rect_chair"
       id="rect92-19-7"
       width="3.725286"
       height="3.5205045"
       x="190.52176"
       y="90.169785"
       ry="0.2106781" />
    <rect
       style="fill:#0000ff"
       class="rect_chair"
       id="rect92-18-3"
       width="3.725286"
       height="3.5205045"
       x="190.55609"
       y="75.881279"
       ry="0.2106781" />
    <rect
       style="fill:#0000ff"
       class="rect_chair"
       id="rect92-36-9"
       width="3.725286"
       height="3.5205045"
       x="200.22691"
       y="72.357437"
       ry="0.2106781" />
    <rect
       style="fill:#0000ff"
       class="rect_chair"
       id="rect92-2-4"
       width="3.725286"
       height="3.5205045"
       x="200.15561"
       y="79.513435"
       ry="0.2106781" />
    <rect
       style="fill:#0000ff"
       class="rect_chair"
       id="rect92-22-8"
       width="3.725286"
       height="3.5205045"
       x="200.12122"
       y="83.065857"
       ry="0.2106781" />
    <rect
       style="fill:#0000ff"
       class="rect_chair"
       id="rect92-6-1"
       width="3.725286"
       height="3.5205045"
       x="200.1264"
       y="86.632095"
       ry="0.2106781" />
    <rect
       style="fill:#0000ff"
       class="rect_chair"
       id="rect92-19-29"
       width="3.725286"
       height="3.5205045"
       x="200.15768"
       y="90.225449"
       ry="0.2106781" />
    <rect
       style="fill:#0000ff"
       class="rect_chair"
       id="rect92-19-29-0"
       width="3.725286"
       height="3.5205045"
       x="208.89906"
       y="90.481255"
       ry="0.2106781" />
    <rect
       style="fill:#0000ff"
       class="rect_chair"
       id="rect92-19-29-5"
       width="3.725286"
       height="3.5205045"
       x="218.94183"
       y="90.448601"
       ry="0.2106781" />
    <rect
       style="fill:#0000ff"
       class="rect_chair"
       id="rect92-19-29-9"
       width="3.725286"
       height="3.5205045"
       x="229.0099"
       y="90.37751"
       ry="0.2106781" />
    <rect
       style="fill:#0000ff"
       class="rect_chair"
       id="rect92-19-29-03"
       width="3.725286"
       height="3.5205045"
       x="239.13797"
       y="90.434181"
       ry="0.2106781" />
    <rect
       style="fill:#0000ff"
       class="rect_chair"
       id="rect92-19-29-4"
       width="3.725286"
       height="3.5205045"
       x="249.09666"
       y="90.455231"
       ry="0.2106781" />
    <rect
       style="fill:#0000ff"
       class="rect_chair"
       id="rect92-19-29-7"
       width="3.725286"
       height="3.5205045"
       x="259.17731"
       y="90.337517"
       ry="0.2106781" />
    <rect
       style="fill:#0000ff"
       class="rect_chair"
       id="rect92-19-29-1"
       width="3.725286"
       height="3.5205045"
       x="269.14188"
       y="90.452049"
       ry="0.2106781" />
    <rect
       style="fill:#0000ff"
       class="rect_chair"
       id="rect92-19-29-41"
       width="3.725286"
       height="3.5205045"
       x="279.23117"
       y="90.483215"
       ry="0.2106781" />
    <rect
       style="fill:#0000ff"
       class="rect_chair"
       id="rect92-19-29-53"
       width="3.725286"
       height="3.5205045"
       x="289.32971"
       y="90.501022"
       ry="0.2106781" />
    <rect
       style="fill:#0000ff"
       class="rect_chair"
       id="rect92-19-29-8"
       width="3.725286"
       height="3.5205045"
       x="299.36731"
       y="90.484283"
       ry="0.2106781" />
    <rect
       style="fill:#0000ff"
       class="rect_chair"
       id="rect92-19-29-3"
       width="3.725286"
       height="3.5205045"
       x="323.9982"
       y="147.29404"
       ry="0.2106781" />
    <rect
       style="fill:#0000ff"
       class="rect_chair"
       id="rect92-19-29-3-4"
       width="3.725286"
       height="3.5205045"
       x="357"
       y="124"
       ry="0.2106781" />
    <rect
       style="fill:#0000ff"
       class="rect_chair"
       id="rect92-19-29-3-1"
       width="3.725286"
       height="3.5205045"
       x="86"
       y="89"
       ry="0.2106781" />
    <rect
       style="fill:#0000ff"
       class="rect_chair"
       id="rect92-19-29-3-1-2"
       width="3.725286"
       height="3.5205045"
       x="49"
       y="88"
       ry="0.2106781" />
    <rect
       style="fill:#0000ff"
       class="rect_chair"
       id="rect92-19-29-48"
       width="3.725286"
       height="3.5205045"
       x="315.61118"
       y="147.22876"
       ry="0.2106781" />
    <rect
       style="fill:#0000ff"
       class="rect_chair"
       id="rect92-19-29-76"
       width="3.725286"
       height="3.5205045"
       x="307.26553"
       y="147.2195"
       ry="0.2106781" />
    <rect
       style="fill:#0000ff"
       class="rect_chair"
       id="rect92-19-29-09"
       width="3.725286"
       height="3.5205045"
       x="298.03513"
       y="147.35181"
       ry="0.2106781" />
    <rect
       style="fill:#0000ff"
       class="rect_chair"
       id="rect92-19-29-59"
       width="3.725286"
       height="3.5205045"
       x="288.73334"
       y="147.3475"
       ry="0.2106781" />
    <rect
       style="fill:#0000ff"
       class="rect_chair"
       id="rect92-19-29-2"
       width="3.725286"
       height="3.5205045"
       x="279.52475"
       y="147.82483"
       ry="0.2106781" />
    <rect
       style="fill:#0000ff"
       class="rect_chair"
       id="rect92-19-29-481"
       width="3.725286"
       height="3.5205045"
       x="270.14124"
       y="148.89935"
       ry="0.2106781" />
    <rect
       style="fill:#0000ff"
       class="rect_chair"
       id="rect92-19-29-6"
       width="3.725286"
       height="3.5205045"
       x="260.95566"
       y="149.89342"
       ry="0.2106781" />
    <rect
       style="fill:#0000ff"
       class="rect_chair"
       id="rect92-19-29-05"
       width="3.725286"
       height="3.5205045"
       x="251.99445"
       y="151.52773"
       ry="0.2106781" />
    <rect
       style="fill:#0000ff"
       class="rect_chair"
       id="rect92-19-29-50"
       width="3.725286"
       height="3.5205045"
       x="243.34315"
       y="153.50395"
       ry="0.2106781" />
    <rect
       style="fill:#0000ff"
       class="rect_chair"
       id="rect92-19-29-58"
       width="3.725286"
       height="3.5205045"
       x="242.63885"
       y="149.75502"
       ry="0.2106781" />
    <rect
       style="fill:#0000ff"
       class="rect_chair"
       id="rect92-19-29-58-2"
       width="3.725286"
       height="3.5205045"
       x="211.05481"
       y="138.60262"
       ry="0.2106781" />
    <rect
       style="fill:#0000ff"
       class="rect_chair"
       id="rect92-19-29-58-2-3"
       width="3.725286"
       height="3.5205045"
       x="214.79268"
       y="138.61665"
       ry="0.2106781" />
    <rect
       style="fill:#0000ff"
       class="rect_chair"
       id="rect92-19-29-58-2-3-9"
       width="3.725286"
       height="3.5205045"
       x="218.55432"
       y="138.62878"
       ry="0.2106781" />
    <rect
       style="fill:#0000ff"
       class="rect_chair"
       id="rect92-19-29-58-2-5"
       width="3.725286"
       height="3.5205045"
       x="210.88469"
       y="101.20748"
       ry="0.2106781" />
    <rect
       style="fill:#0000ff"
       class="rect_chair"
       id="rect92-19-29-58-2-3-4"
       width="3.725286"
       height="3.5205045"
       x="214.62256"
       y="101.22152"
       ry="0.2106781" />
    <rect
       style="fill:#0000ff"
       class="rect_chair"
       id="rect92-19-29-58-2-3-9-4"
       width="3.725286"
       height="3.5205045"
       x="218.3842"
       y="101.23365"
       ry="0.2106781" />
    <rect
       style="fill:#0000ff"
       class="rect_chair"
       id="rect92-19-29-58-2-0"
       width="3.725286"
       height="3.5205045"
       x="279.57916"
       y="101.3095"
       ry="0.2106781" />
    <rect
       style="fill:#0000ff"
       class="rect_chair"
       id="rect92-19-29-58-2-3-5"
       width="3.725286"
       height="3.5205045"
       x="283.31702"
       y="101.32354"
       ry="0.2106781" />
    <rect
       style="fill:#0000ff"
       class="rect_chair"
       id="rect92-19-29-58-2-3-9-0"
       width="3.725286"
       height="3.5205045"
       x="287.07867"
       y="101.33567"
       ry="0.2106781" />
    <rect
       style="fill:#0000ff"
       class="rect_chair"
       id="rect92-19-29-58-2-51"
       width="3.725286"
       height="3.5205045"
       x="279.63574"
       y="138.44066"
       ry="0.2106781" />
    <rect
       style="fill:#0000ff"
       class="rect_chair"
       id="rect92-19-29-58-2-3-7"
       width="3.725286"
       height="3.5205045"
       x="283.3736"
       y="138.4547"
       ry="0.2106781" />
    <rect
       style="fill:#0000ff"
       class="rect_chair"
       id="rect92-19-29-58-2-3-9-43"
       width="3.725286"
       height="3.5205045"
       x="287.13525"
       y="138.46683"
       ry="0.2106781" />
    <rect
       style="fill:#0000ff"
       class="rect_chair"
       id="rect92-19-29-72"
       width="3.725286"
       height="3.5205045"
       x="235.14803"
       y="155.28149"
       ry="0.2106781" />
    <rect
       style="fill:#0000ff"
       class="rect_chair"
       id="rect92-19-29-99"
       width="3.725286"
       height="3.5205045"
       x="234.29041"
       y="151.54668"
       ry="0.2106781" />
    <rect
       style="fill:#0000ff"
       class="rect_chair"
       id="rect92-19-29-11"
       width="3.725286"
       height="3.5205045"
       x="226.49664"
       y="156.91286"
       ry="0.2106781" />
    <rect
       style="fill:#0000ff"
       class="rect_chair"
       id="rect92-19-29-39"
       width="3.725286"
       height="3.5205045"
       x="225.56128"
       y="153.3076"
       ry="0.2106781" />
    <rect
       style="fill:#0000ff"
       class="rect_chair"
       id="rect92-19-29-33"
       width="3.725286"
       height="3.5205045"
       x="217.52599"
       y="159.08902"
       ry="0.2106781" />
    <rect
       style="fill:#0000ff"
       class="rect_chair"
       id="rect92-19-29-33-6"
       width="3.725286"
       height="3.5205045"
       x="209.08551"
       y="161.8513"
       ry="0.2106781" />
    <rect
       style="fill:#0000ff"
       class="rect_chair"
       id="rect92-19-29-64-0"
       width="3.725286"
       height="3.5205045"
       x="207.93117"
       y="158.31175"
       ry="0.2106781" />
    <rect
       style="fill:#0000ff"
       class="rect_chair"
       id="rect92-19-29-26-2"
       width="3.725286"
       height="3.5205045"
       x="206.92409"
       y="154.72238"
       ry="0.2106781" />
    <rect
       style="fill:#0000ff"
       class="rect_chair"
       id="rect92-19-29-33-2"
       width="3.725286"
       height="3.5205045"
       x="200.97212"
       y="164.17064"
       ry="0.2106781" />
    <rect
       style="fill:#0000ff"
       class="rect_chair"
       id="rect92-19-29-64-1"
       width="3.725286"
       height="3.5205045"
       x="199.81778"
       y="160.63109"
       ry="0.2106781" />
    <rect
       style="fill:#0000ff"
       class="rect_chair"
       id="rect92-19-29-26-5"
       width="3.725286"
       height="3.5205045"
       x="198.8107"
       y="157.04172"
       ry="0.2106781" />
    <rect
       style="fill:#0000ff"
       class="rect_chair"
       id="rect92-19-29-33-9"
       width="3.725286"
       height="3.5205045"
       x="193.41374"
       y="166.42223"
       ry="0.2106781" />
    <rect
       style="fill:#0000ff"
       class="rect_chair"
       id="rect92-19-29-64-10"
       width="3.725286"
       height="3.5205045"
       x="192.2594"
       y="162.88268"
       ry="0.2106781" />
    <rect
       style="fill:#0000ff"
       class="rect_chair"
       id="rect92-19-29-26-7"
       width="3.725286"
       height="3.5205045"
       x="191.25232"
       y="159.2933"
       ry="0.2106781" />
    <rect
       style="fill:#0000ff"
       class="rect_chair"
       id="rect92-19-29-33-4"
       width="3.725286"
       height="3.5205045"
       x="185.99953"
       y="168.95544"
       ry="0.2106781" />
    <rect
       style="fill:#0000ff"
       class="rect_chair"
       id="rect92-19-29-64-8"
       width="3.725286"
       height="3.5205045"
       x="184.84518"
       y="165.41589"
       ry="0.2106781" />
    <rect
       style="fill:#0000ff"
       class="rect_chair"
       id="rect92-19-29-26-0"
       width="3.725286"
       height="3.5205045"
       x="183.8381"
       y="161.82652"
       ry="0.2106781" />
    <rect
       style="fill:#0000ff"
       class="rect_chair"
       id="rect92-19-29-33-1"
       width="3.725286"
       height="3.5205045"
       x="178.3586"
       y="172.093"
       ry="0.2106781" />
    <rect
       style="fill:#0000ff"
       class="rect_chair"
       id="rect92-19-29-64-04"
       width="3.725286"
       height="3.5205045"
       x="177.20425"
       y="168.55345"
       ry="0.2106781" />
    <rect
       style="fill:#0000ff"
       class="rect_chair"
       id="rect92-19-29-26-22"
       width="3.725286"
       height="3.5205045"
       x="176.19717"
       y="164.96408"
       ry="0.2106781" />
    <rect
       style="fill:#0000ff"
       class="rect_chair"
       id="rect92-19-29-64"
       width="3.725286"
       height="3.5205045"
       x="216.37164"
       y="155.54947"
       ry="0.2106781" />
    <rect
       style="fill:#0000ff"
       class="rect_chair"
       id="rect92-19-29-26"
       width="3.725286"
       height="3.5205045"
       x="215.36456"
       y="151.9601"
       ry="0.2106781" />
    <rect
       style="fill:#0000ff"
       class="rect_chair"
       id="rect92-18-39"
       width="3.725286"
       height="3.5205045"
       x="200.19202"
       y="75.936943"
       ry="0.2106781" />
    <text
       xml:space="preserve"
       style="font-style:normal;font-variant:normal;font-weight:normal;font-stretch:normal;font-size:8px;font-family:sans-serif;-inkscape-font-specification:sans-serif;text-align:center;text-anchor:middle;fill:#0000ff"
       x="236.72473"
       y="59.107285"
       id="text93"><tspan
         id="tspan93"
         x="236.72473"
         y="59.107285" /></text>
    <text
       xml:space="preserve"
       style="font-style:normal;font-variant:normal;font-weight:normal;font-stretch:normal;font-size:8px;font-family:sans-serif;-inkscape-font-specification:sans-serif;text-align:center;text-anchor:middle;fill:#0000ff"
       x="249.98074"
       y="71.046982"
       id="text94"><tspan
         id="tspan94"
         x="249.98074"
         y="71.046982" /></text>
  </g>
</svg>
