<?xml version="1.0" encoding="UTF-8" standalone="no"?>
<!-- Created with Inkscape (http://www.inkscape.org/) -->
<svg height="1588" id="svg1" version="1.1" viewBox="0 0 1588 1588" width="1588" xmlns="http://www.w3.org/2000/svg" xmlns:svg="http://www.w3.org/2000/svg">
<metadata>{"current_lvl": 1, "total_lvl": 4}</metadata>
<defs id="defs1"></defs>
<g id="g1">
<rect class="wall" height="15.730909" id="rect1" style="fill:#000000" width="1511.0599" x="38.194427" y="45.752148"></rect>
<rect class="wall" height="1497.7" id="rect2" style="fill:#000000" width="16.647545" x="1532.7695" y="45.739494"></rect>
<rect class="wall" height="16.224289" id="rect3" style="fill:#000000" width="59.55304" x="1480.0876" y="1407.6514"></rect>
<rect class="wall" height="14.772331" id="rect4" style="fill:#000000" width="96.633057" x="1278.6648" y="1407.9592"></rect>
<rect class="wall" height="125.54677" id="rect5" style="fill:#000000" width="16.207184" x="1279.0031" y="1415.6637"></rect>
<rect class="wall" height="14.730478" id="rect6" style="fill:#000000" width="937.50433" x="611.20734" y="1528.6864"></rect>
<rect class="wall" height="980.69543" id="rect7" style="fill:#000000" width="13.937984" x="613.1687" y="561.52234"></rect>
<rect class="wall" height="17.5639" id="rect8" style="fill:#000000" width="136.69405" x="532.2937" y="551.86731"></rect>
<rect class="wall" height="122.96545" id="rect9" style="fill:#000000" width="16.658157" x="718.61145" y="552.6521"></rect>
<rect class="wall" height="16.427691" id="rect10" style="fill:#000000" width="101.4238" x="619.573" y="644.93378"></rect>
<rect class="wall" height="17.773539" id="rect11" style="fill:#000000" width="31.466528" x="784.30811" y="552.64069"></rect>
<rect class="wall" height="320.78574" id="rect12" style="fill:#000000" width="15.736814" x="799.75415" y="556.33893"></rect>
<rect class="wall" height="34.746243" id="rect13" style="fill:#000000" width="16.302208" x="719.0589" y="835.06531"></rect>
<rect class="wall" height="54.134808" id="rect14" style="fill:#000000" width="16.893253" x="717.4397" y="728.67902"></rect>
<rect class="wall" height="15.555325" id="rect15" style="fill:#000000" width="98.318771" x="623.71436" y="753.26538"></rect>
<rect class="wall" height="18.090548" id="rect16" style="fill:#000000" width="766.47174" x="40.466648" y="859.42548"></rect>
<rect class="wall" height="294.88599" id="rect17" style="fill:#000000" width="15.505912" x="331.38068" y="566.24231"></rect>
<rect class="wall" height="16.338316" id="rect18" style="fill:#000000" width="192.27788" x="251.45462" y="551.95837"></rect>
<rect class="wall" height="16.245193" id="rect19" style="fill:#000000" width="115.75746" x="45.702435" y="553.00366"></rect>
<rect class="wall" height="829.2287" id="rect20" style="fill:#000000" width="15.818346" x="38.244244" y="46.708092"></rect>
<rect class="wall" height="310.84232" id="rect21" style="fill:#000000" width="17.929008" x="623.64972" y="58.285431"></rect>
<rect class="wall" height="393.68939" id="rect22" style="fill:#000000" width="15.752987" x="800.19934" y="55.668488"></rect>
<rect class="wall" height="16.667097" id="rect23" style="fill:#000000" width="24.103626" x="785.62085" y="432.86942"></rect>
<rect class="wall" height="15.777678" id="rect24" style="fill:#000000" width="242.31148" x="491.67178" y="432.89413"></rect>
<rect class="wall" height="19.4708" id="rect25" style="fill:#000000" width="15.476255" x="611.98102" y="442.23334"></rect>
<rect class="wall" height="21.227861" id="rect26" style="fill:#000000" width="15.270649" x="611.71088" y="538.54724"></rect>
<rect class="wall" height="17.623701" id="rect27" style="fill:#000000" width="97.203491" x="304.16928" y="432.36627"></rect>
<rect class="wall" height="16.343029" id="rect28" style="fill:#000000" width="177.17366" x="50.627575" y="433.18735"></rect>
<rect class="wall" height="246.03168" id="rect29" style="fill:#000000" width="17.80579" x="1278.1924" y="58.024033"></rect>
<rect class="wall" height="202.78712" id="rect30" style="fill:#000000" width="17.844761" x="1277.804" y="552.92291"></rect>
<rect class="wall" height="14.860108" id="rect31" style="fill:#000000" width="242.5834" x="1291.6737" y="740.33789"></rect>
<rect class="wall" height="469.99225" id="rect32" style="fill:#000000" width="17.179564" x="1278.4478" y="847.32452"></rect>
<rect class="wall" height="375.77878" id="rect33" style="fill:#000000" width="14.736476" x="1407.4906" y="893.5282"></rect>
<rect class="wall" height="4.8593011" id="rect34" style="fill:#000000" width="245.82742" x="1287.8652" y="1268.2292"></rect>
<rect class="wall" height="4.8593011" id="rect34-3" style="fill:#000000" width="245.82742" x="1291" y="1228"></rect>
<rect class="wall" height="4.8593011" id="rect34-1" style="fill:#000000" width="245.82742" x="1292" y="1191"></rect>
<rect class="wall" height="4.8593011" id="rect34-36" style="fill:#000000" width="245.82742" x="1291" y="1154"></rect>
<rect class="wall" height="4.8593011" id="rect34-18" style="fill:#000000" width="245.82742" x="1290" y="1114"></rect>
<rect class="wall" height="4.8593011" id="rect34-2" style="fill:#000000" width="245.82742" x="1288" y="1078"></rect>
<rect class="wall" height="4.8593011" id="rect34-22" style="fill:#000000" width="245.82742" x="1289" y="1040"></rect>
<rect class="wall" height="4.8593011" id="rect34-6" style="fill:#000000" width="245.82742" x="1290" y="1002.0001"></rect>
<rect class="wall" height="4.8593011" id="rect34-19" style="fill:#000000" width="245.82742" x="1289" y="964.00006"></rect>
<rect class="wall" height="4.8593011" id="rect34-5" style="fill:#000000" width="245.82742" x="1288" y="927.00006"></rect>
<rect class="wall" height="4.8593011" id="rect34-0" style="fill:#000000" width="245.82742" x="1287" y="895.00006"></rect>
<rect class="wall" height="169.32971" id="rect35" style="fill:#000000" width="17.725161" x="711.49384" y="172.51459"></rect>
<rect class="wall" height="3.7815468" id="rect36" style="fill:#000000" width="163.68292" x="637.23767" y="337.22958"></rect>
<rect class="wall" height="3.7815468" id="rect36-6" style="fill:#000000" width="163.68292" x="638" y="321"></rect>
<rect class="wall" height="3.7815468" id="rect36-7" style="fill:#000000" width="163.68292" x="639" y="304"></rect>
<rect class="wall" height="3.7815468" id="rect36-4" style="fill:#000000" width="163.68292" x="638" y="288"></rect>
<rect class="wall" height="3.7815468" id="rect36-0" style="fill:#000000" width="163.68292" x="639" y="271"></rect>
<rect class="wall" height="3.7815468" id="rect36-8" style="fill:#000000" width="163.68292" x="635" y="253"></rect>
<rect class="wall" height="3.7815468" id="rect36-9" style="fill:#000000" width="163.68292" x="638" y="238"></rect>
<rect class="wall" height="3.7815468" id="rect36-92" style="fill:#000000" width="163.68292" x="638" y="221"></rect>
<rect class="wall" height="3.7815468" id="rect36-5" style="fill:#000000" width="163.68292" x="637" y="205"></rect>
<rect class="wall" height="3.7815468" id="rect36-1" style="fill:#000000" width="163.68292" x="635" y="187"></rect>
<rect class="wall" height="3.7815468" id="rect36-2" style="fill:#000000" width="163.68292" x="636" y="171"></rect>
<rect class="wall" height="43.027527" id="rect37" style="fill:#000000" width="17.026285" x="745.17603" y="1487.8844"></rect>
<rect class="wall" height="15.177132" id="rect38" style="fill:#000000" width="135.51471" x="626.56122" y="1434.4033"></rect>
<rect class="wall" height="41.681999" id="rect39" style="fill:#000000" width="16.02854" x="745.46875" y="1394.5087"></rect>
<rect class="wall" height="15.177132" id="rect38-9" style="fill:#000000" width="135.51471" x="626.38245" y="1341.8427"></rect>
<rect class="wall" height="41.681999" id="rect39-1" style="fill:#000000" width="16.02854" x="745.28998" y="1301.948"></rect>
<rect class="wall" height="15.177132" id="rect38-5" style="fill:#000000" width="135.51471" x="627.23529" y="1246.4098"></rect>
<rect class="wall" height="41.681999" id="rect39-9" style="fill:#000000" width="16.02854" x="746.14282" y="1206.5151"></rect>
<rect class="wall" height="15.177132" id="rect38-3" style="fill:#000000" width="135.51471" x="626.35565" y="1153.3783"></rect>
<rect class="wall" height="41.681999" id="rect39-6" style="fill:#000000" width="16.02854" x="745.26318" y="1113.4836"></rect>
<rect class="wall" height="15.177132" id="rect38-4" style="fill:#000000" width="135.51471" x="626.50659" y="1060.7089"></rect>
<rect class="wall" height="41.681999" id="rect39-8" style="fill:#000000" width="16.02854" x="745.41412" y="1020.8142"></rect>
<rect class="wall" height="15.177132" id="rect38-90" style="fill:#000000" width="135.51471" x="627.18457" y="967.00873"></rect>
<rect class="wall" height="41.681999" id="rect39-88" style="fill:#000000" width="16.02854" x="746.0921" y="927.11407"></rect>
<rect class="" height="28.105059" id="rect40" style="fill:#326463;fill-opacity:1" width="295.76022" x="878.58789" y="1434.7207"></rect>
<rect class="" height="28.784477" id="rect41" style="fill:#326463;fill-opacity:1" width="297.62457" x="877.77167" y="1354.5248"></rect>
<rect class="" height="31.44418" id="rect42" style="fill:#326463;fill-opacity:1" width="296.54034" x="878.43585" y="1272.1053"></rect>
<rect class="" height="31.228477" id="rect43" style="fill:#326463;fill-opacity:1" width="296.82541" x="878.35791" y="1191.916"></rect>
<rect class="" height="31.535402" id="rect44" style="fill:#326463;fill-opacity:1" width="296.84729" x="878.26196" y="1112.6143"></rect>
<rect class="" height="30.441685" id="rect45" style="fill:#326463;fill-opacity:1" width="296.81592" x="878.32373" y="1032.693"></rect>
<rect class="" height="31.366261" id="rect46" style="fill:#326463;fill-opacity:1" width="298.60712" x="877.49133" y="952.49329"></rect>
<rect class="" height="31.581964" id="rect47" style="fill:#326463;fill-opacity:1" width="297.78421" x="877.84009" y="872.09497"></rect>
<rect class="" height="30.681143" id="rect48" style="fill:#326463;fill-opacity:1" width="297.48489" x="878.5271" y="792.61169"></rect>
<rect class="" height="31.390017" id="rect49" style="fill:#326463;fill-opacity:1" width="298.5976" x="877.28796" y="712.2381"></rect>
<rect class="" height="30.662138" id="rect50" style="fill:#326463;fill-opacity:1" width="298.38477" x="878.15271" y="632.81091"></rect>
<rect class="" height="31.270288" id="rect51" style="fill:#326463;fill-opacity:1" width="299.00146" x="877.97974" y="405.19861"></rect>
<rect class="" height="30.297249" id="rect52" style="fill:#326463;fill-opacity:1" width="296.79883" x="878.69244" y="325.82654"></rect>
<rect class="" height="28.401533" id="rect53" style="fill:#326463;fill-opacity:1" width="297.36041" x="878.23724" y="245.70476"></rect>
<rect class="" height="27.762976" id="rect54" style="fill:#326463;fill-opacity:1" width="298.39902" x="877.81628" y="165.60956"></rect>
<rect class="" height="12.65141" id="rect55" style="fill:#326463;fill-opacity:1" width="204.00661" x="972.26764" y="61.945728"></rect>
<rect class="" height="164.81232" id="rect56" style="fill:#fccc77;fill-opacity:1" width="84.987946" x="437.52365" y="659.15045"></rect>
<rect class="" height="161.10165" id="rect57" style="fill:#fccc77;fill-opacity:1" width="83.979744" x="157.89746" y="667.55621"></rect>
<rect class="" height="101.8964" id="rect58" style="fill:#fccc77;fill-opacity:1" width="26.756678" x="54.522503" y="450.59506"></rect>
<rect class="" height="150.83818" id="rect59" style="fill:#fccc77;fill-opacity:1" width="44.86433" x="103.39967" y="152.5334"></rect>
<rect class="" height="151.01492" id="rect60" style="fill:#fccc77;fill-opacity:1" width="43.314499" x="224.81197" y="152.3576"></rect>
<rect class="" height="151.35036" id="rect61" style="fill:#fccc77;fill-opacity:1" width="43.896042" x="384.50253" y="152.99997"></rect>
<rect class="" height="149.72926" id="rect62" style="fill:#fccc77;fill-opacity:1" width="42.732956" x="504.78784" y="153.14725"></rect>
<rect class="" height="242.9664" id="rect63" style="fill:#facd76;fill-opacity:1" width="53.211765" x="1386.84" y="86.114182"></rect>
<rect class="" height="202.80594" id="rect64" style="fill:#facd76;fill-opacity:1" width="57.639698" x="1384.8336" y="525.76404"></rect>
<rect class="rect_chair" height="43.677486" id="S1" style="fill:#0000ff;fill-opacity:1" width="216.60385" x="919.10681" y="513.20502"></rect>
<rect class="rect_chair" height="18.943346" id="S2" style="fill:#0000ff;fill-opacity:1" width="29.589865" x="1332.3704" y="699.01367"></rect>
<rect class="rect_chair" height="18.486443" id="S3" style="fill:#0000ff;fill-opacity:1" width="30.984764" x="1452.0958" y="698.36865"></rect>
<rect class="rect_chair" height="17.674767" id="S4" style="fill:#0000ff;fill-opacity:1" width="30.269173" x="1452.1039" y="632.07599"></rect>
<rect class="rect_chair" height="17.556509" id="S5" style="fill:#0000ff;fill-opacity:1" width="30.093801" x="1332.4812" y="631.52502"></rect>
<rect class="rect_chair" height="17.905907" id="S6" style="fill:#0000ff;fill-opacity:1" width="31.047924" x="1331.3074" y="551.46954"></rect>
<rect class="rect_chair" height="16.89064" id="S7" style="fill:#0000ff;fill-opacity:1" width="30.448574" x="1452.4707" y="552.46936"></rect>
<rect class="rect_chair" height="17.463114" id="S8" style="fill:#0000ff;fill-opacity:1" width="29.911041" x="1345.1973" y="285.34753"></rect>
<rect class="rect_chair" height="17.877014" id="S9" style="fill:#0000ff;fill-opacity:1" width="31.542454" x="1451.9762" y="285.60086"></rect>
<rect class="rect_chair" height="15.868655" id="S10" style="fill:#0000ff;fill-opacity:1" width="29.924479" x="1345.1704" y="219.04482"></rect>
<rect class="rect_chair" height="16.154219" id="S11" style="fill:#0000ff;fill-opacity:1" width="30.298737" x="1451.809" y="218.57045"></rect>
<rect class="rect_chair" height="15.387563" id="S12" style="fill:#0000ff;fill-opacity:1" width="30.810064" x="1344.9917" y="165.56831"></rect>
<rect class="rect_chair" height="15.962051" id="S13" style="fill:#0000ff;fill-opacity:1" width="31.490717" x="1451.1787" y="165.51994"></rect>
<rect class="rect_chair" height="15.934503" id="S14" style="fill:#0000ff;fill-opacity:1" width="30.576239" x="1345.4438" y="98.986084"></rect>
<rect class="rect_chair" height="16.379313" id="S15" style="fill:#0000ff;fill-opacity:1" width="30.46134" x="1452.6952" y="98.505669"></rect>
<rect class="rect_chair" height="16.02759" id="S16" style="fill:#0000ff;fill-opacity:1" width="30.903498" x="558.27173" y="165.19812"></rect>
<rect class="rect_chair" height="14.781834" id="S17" style="fill:#0000ff;fill-opacity:1" width="31.738752" x="557.43268" y="192.68932"></rect>
<rect class="rect_chair" height="16.030441" id="S18" style="fill:#0000ff;fill-opacity:1" width="31.679838" x="557.71588" y="231.91687"></rect>
<rect class="rect_chair" height="15.445097" id="S19" style="fill:#0000ff;fill-opacity:1" width="30.927254" x="557.55334" y="258.93771"></rect>
<rect class="rect_chair" height="16.056097" id="S20" style="fill:#0000ff;fill-opacity:1" width="32.134048" x="437.40109" y="258.62415"></rect>
<rect class="rect_chair" height="16.612934" id="S21" style="fill:#0000ff;fill-opacity:1" width="31.466036" x="438.3551" y="232.15727"></rect>
<rect class="rect_chair" height="17.400679" id="S22" style="fill:#0000ff;fill-opacity:1" width="33.334194" x="436.67511" y="190.84872"></rect>
<rect class="rect_chair" height="18.807974" id="S23" style="fill:#0000ff;fill-opacity:1" width="34.819408" x="436.17053" y="158.79259"></rect>
<rect class="rect_chair" height="16.6747" id="S24" style="fill:#0000ff;fill-opacity:1" width="31.782463" x="277.94238" y="257.92477"></rect>
<rect class="rect_chair" height="15.90311" id="S25" style="fill:#0000ff;fill-opacity:1" width="31.609522" x="277.50906" y="231.85034"></rect>
<rect class="rect_chair" height="15.613289" id="S26" style="fill:#0000ff;fill-opacity:1" width="32.122646" x="277.08148" y="191.91963"></rect>
<rect class="rect_chair" height="15.280706" id="S27" style="fill:#0000ff;fill-opacity:1" width="33.051975" x="276.66718" y="165.74165"></rect>
<rect class="rect_chair" height="16.72031" id="S28" style="fill:#0000ff;fill-opacity:1" width="32.186314" x="157.35109" y="258.1319"></rect>
<rect class="rect_chair" height="15.838493" id="S29" style="fill:#0000ff;fill-opacity:1" width="31.725449" x="157.49171" y="231.40279"></rect>
<rect class="rect_chair" height="18.30245" id="S30" style="fill:#0000ff;fill-opacity:1" width="31.989614" x="157.10593" y="189.72459"></rect>
<rect class="rect_chair" height="16.848593" id="S31" style="fill:#0000ff;fill-opacity:1" width="30.818926" x="157.31592" y="156.49303"></rect>
<rect class="rect_chair" height="18.250187" id="S32" style="fill:#0000ff;fill-opacity:1" width="31.791016" x="117.20467" y="672.32068"></rect>
<rect class="rect_chair" height="17.860592" id="S33" style="fill:#0000ff;fill-opacity:1" width="30.463539" x="250.84552" y="672.11542"></rect>
<rect class="rect_chair" height="17.830183" id="S34" style="fill:#0000ff;fill-opacity:1" width="31.842329" x="251.10873" y="712.5412"></rect>
<rect class="rect_chair" height="17.940411" id="S35" style="fill:#0000ff;fill-opacity:1" width="30.206976" x="117.5667" y="712.09174"></rect>
<rect class="rect_chair" height="17.951813" id="S36" style="fill:#0000ff;fill-opacity:1" width="31.214224" x="116.97851" y="765.63647"></rect>
<rect class="rect_chair" height="16.697506" id="S37" style="fill:#0000ff;fill-opacity:1" width="31.743504" x="116.99847" y="806.42999"></rect>
<rect class="rect_chair" height="19.81142" id="S38" style="fill:#0000ff;fill-opacity:1" width="32.096039" x="250.87117" y="764.66437"></rect>
<rect class="rect_chair" height="19.153858" id="S39" style="fill:#0000ff;fill-opacity:1" width="32.684235" x="251.26648" y="804.91821"></rect>
<rect class="rect_chair" height="18.118105" id="S40" style="fill:#0000ff;fill-opacity:1" width="32.684235" x="396.40421" y="805.55676"></rect>
<rect class="rect_chair" height="18.784218" id="S41" style="fill:#0000ff;fill-opacity:1" width="32.165409" x="530.92877" y="805.323"></rect>
<rect class="rect_chair" height="17.638237" id="S42" style="fill:#0000ff;fill-opacity:1" width="31.618073" x="530.1059" y="766.03937"></rect>
<rect class="rect_chair" height="19.243181" id="S43" style="fill:#0000ff;fill-opacity:1" width="32.080837" x="396.89642" y="765.19464"></rect>
<rect class="rect_chair" height="20.301741" id="S44" style="fill:#0000ff;fill-opacity:1" width="32.137852" x="396.28354" y="712.07086"></rect>
<rect class="rect_chair" height="20.366358" id="S45" style="fill:#0000ff;fill-opacity:1" width="32.889484" x="530.4917" y="711.54541"></rect>
<rect class="rect_chair" height="19.134853" id="S46" style="fill:#0000ff;fill-opacity:1" width="31.762508" x="531.09033" y="671.68781"></rect>
<rect class="rect_chair" height="18.476343" id="S47" style="fill:#0000ff;fill-opacity:1" width="31.338705" x="397.54163" y="671.33813"></rect>
<rect class="rect_chair" height="30.643133" id="S48" style="fill:#0000ff;fill-opacity:1" width="30.776167" x="638.00824" y="912.24567"></rect>
<rect class="rect_chair" height="31.252708" id="S49" style="fill:#0000ff;fill-opacity:1" width="31.194744" x="637.59485" y="1005.2707"></rect>
<rect class="rect_chair" height="32.15163" id="S50" style="fill:#0000ff;fill-opacity:1" width="30.891144" x="637.88849" y="1098.3503"></rect>
<rect class="rect_chair" height="30.676867" id="S51" style="fill:#0000ff;fill-opacity:1" width="31.812395" x="637.11688" y="1192.6492"></rect>
<rect class="rect_chair" height="31.91217" id="S52" style="fill:#0000ff;fill-opacity:1" width="31.156734" x="637.73932" y="1285.4927"></rect>
<rect class="rect_chair" height="31.292618" id="S53" style="fill:#0000ff;fill-opacity:1" width="32.851475" x="636.72449" y="1379.4551"></rect>
<rect class="rect_chair" height="30.742908" id="S54" style="fill:#0000ff;fill-opacity:1" width="32.402966" x="637.01617" y="1473.5054"></rect>
<text class="wall" id="text118" style="font-size:26.6667px;font-family:sans-serif;-inkscape-font-specification:sans-serif;text-align:center;text-anchor:middle;fill:#000000;fill-opacity:1" x="1427.515" xml:space="preserve" y="1454.3735"><tspan id="tspan118" x="1427.515" y="1454.3735">AUFZUG</tspan></text>
<text class="wall" id="text119" style="font-size:26.6667px;font-family:sans-serif;-inkscape-font-specification:sans-serif;text-align:center;text-anchor:middle;fill:#000000;fill-opacity:1" x="347.71994" xml:space="preserve" y="509.04871"><tspan id="tspan119" x="347.71994" y="509.04871">1. ETAGE</tspan></text>
<text class="wall" id="text120" style="font-size:26.6667px;font-family:sans-serif;-inkscape-font-specification:sans-serif;text-align:center;text-anchor:middle;fill:#000000;fill-opacity:1" x="693.44818" xml:space="preserve" y="714.34546"><tspan id="tspan120" x="693.44818" y="714.34546">WG</tspan></text>
<text class="wall" id="text121" style="font-size:26.6667px;font-family:sans-serif;-inkscape-font-specification:sans-serif;text-align:center;text-anchor:middle;fill:#000000;fill-opacity:1" x="692.24146" xml:space="preserve" y="820.55872"><tspan id="tspan121" x="692.24146" y="820.55872">WC</tspan></text>
</g>
</svg>
